EBGaramondVF-DisplayExpanded_UltraLight.ufo
<glyph name="exclam" format="1">
  <advance width="250"/>
  <unicode hex="0021"/>
  <outline>
    <contour>
      <point x="123" y="205" type="curve" smooth="yes"/>
      <point x="124" y="205"/>
      <point x="127" y="206"/>
      <point x="127" y="210" type="curve" smooth="yes"/>
      <point x="146" y="360"/>
      <point x="150" y="515"/>
      <point x="150" y="616" type="curve" smooth="yes"/>
      <point x="150" y="633"/>
      <point x="141" y="649"/>
      <point x="125" y="649" type="curve" smooth="yes"/>
      <point x="109" y="649"/>
      <point x="99" y="633"/>
      <point x="99" y="616" type="curve" smooth="yes"/>
      <point x="99" y="515"/>
      <point x="100" y="358"/>
      <point x="120" y="210" type="curve" smooth="yes"/>
      <point x="118" y="206"/>
      <point x="122" y="205"/>
    </contour>
    <contour>
      <point x="124" y="-14" type="curve" smooth="yes"/>
      <point x="149" y="-14"/>
      <point x="168" y="5"/>
      <point x="168" y="28" type="curve" smooth="yes"/>
      <point x="168" y="53"/>
      <point x="149" y="72"/>
      <point x="124" y="72" type="curve" smooth="yes"/>
      <point x="101" y="72"/>
      <point x="82" y="53"/>
      <point x="82" y="28" type="curve" smooth="yes"/>
      <point x="82" y="5"/>
      <point x="101" y="-14"/>
    </contour>
  </outline>
</glyph>
<glyph name="numbersign" format="1">
  <advance width="588"/>
  <unicode hex="0023"/>
  <outline>
    <contour>
      <point x="101" y="-79" type="curve" smooth="yes"/>
      <point x="106" y="-79"/>
      <point x="109" y="-77"/>
      <point x="111" y="-69" type="curve" smooth="yes"/>
      <point x="159" y="129" type="line"/>
      <point x="341" y="135" type="line"/>
      <point x="294" y="-57" type="line"/>
      <point x="293" y="-63" type="line" smooth="yes"/>
      <point x="293" y="-67"/>
      <point x="294" y="-68"/>
      <point x="297" y="-68" type="curve" smooth="yes"/>
      <point x="302" y="-68"/>
      <point x="306" y="-66"/>
      <point x="307" y="-59" type="curve" smooth="yes"/>
      <point x="355" y="137" type="line"/>
      <point x="462" y="140" type="line" smooth="yes"/>
      <point x="478" y="140"/>
      <point x="484" y="159"/>
      <point x="484" y="167" type="curve" smooth="yes"/>
      <point x="484" y="172"/>
      <point x="478" y="175"/>
      <point x="471" y="175" type="curve"/>
      <point x="365" y="172" type="line"/>
      <point x="404" y="333" type="line"/>
      <point x="508" y="336" type="line" smooth="yes"/>
      <point x="524" y="336"/>
      <point x="530" y="356"/>
      <point x="530" y="363" type="curve" smooth="yes"/>
      <point x="530" y="369"/>
      <point x="525" y="372"/>
      <point x="517" y="372" type="curve"/>
      <point x="413" y="369" type="line"/>
      <point x="459" y="558" type="line"/>
      <point x="460" y="560"/>
      <point x="460" y="562"/>
      <point x="460" y="564" type="curve" smooth="yes"/>
      <point x="460" y="568"/>
      <point x="459" y="570"/>
      <point x="455" y="570" type="curve" smooth="yes"/>
      <point x="450" y="570"/>
      <point x="447" y="569"/>
      <point x="445" y="558" type="curve" smooth="yes"/>
      <point x="398" y="367" type="line"/>
      <point x="218" y="361" type="line"/>
      <point x="261" y="542" type="line"/>
      <point x="262" y="547"/>
      <point x="263" y="550"/>
      <point x="263" y="553" type="curve" smooth="yes"/>
      <point x="263" y="557"/>
      <point x="262" y="559"/>
      <point x="258" y="559" type="curve" smooth="yes"/>
      <point x="254" y="559"/>
      <point x="250" y="556"/>
      <point x="248" y="547" type="curve" smooth="yes"/>
      <point x="203" y="359" type="line"/>
      <point x="87" y="356" type="line" smooth="yes"/>
      <point x="74" y="355"/>
      <point x="69" y="337"/>
      <point x="69" y="329" type="curve" smooth="yes"/>
      <point x="69" y="323"/>
      <point x="76" y="320"/>
      <point x="83" y="320" type="curve"/>
      <point x="194" y="323" type="line"/>
      <point x="154" y="162" type="line"/>
      <point x="42" y="159" type="line" smooth="yes"/>
      <point x="28" y="159"/>
      <point x="23" y="140"/>
      <point x="23" y="133" type="curve" smooth="yes"/>
      <point x="23" y="127"/>
      <point x="30" y="124"/>
      <point x="37" y="124" type="curve"/>
      <point x="145" y="127" type="line"/>
      <point x="98" y="-64" type="line"/>
      <point x="96" y="-74" type="line" smooth="yes"/>
      <point x="96" y="-78"/>
      <point x="98" y="-79"/>
    </contour>
    <contour>
      <point x="169" y="164" type="line"/>
      <point x="209" y="325" type="line"/>
      <point x="389" y="331" type="line"/>
      <point x="351" y="170" type="line"/>
    </contour>
  </outline>
</glyph>
<glyph name="dollar" format="1">
  <advance width="524"/>
  <unicode hex="0024"/>
  <outline>
    <contour>
      <point x="221" y="-82" type="curve" smooth="yes"/>
      <point x="224" y="-82"/>
      <point x="228" y="-78"/>
      <point x="230" y="-72" type="curve" smooth="yes"/>
      <point x="236" y="1" type="line" smooth="yes"/>
      <point x="236" y="7"/>
      <point x="242" y="9"/>
      <point x="246" y="9" type="curve" smooth="yes"/>
      <point x="379" y="11"/>
      <point x="480" y="78"/>
      <point x="480" y="164" type="curve" smooth="yes"/>
      <point x="480" y="236"/>
      <point x="429" y="272"/>
      <point x="292" y="325" type="curve"/>
      <point x="281" y="328"/>
      <point x="280" y="331"/>
      <point x="281" y="338" type="curve" smooth="yes"/>
      <point x="307" y="566" type="line"/>
      <point x="307" y="570"/>
      <point x="311" y="571"/>
      <point x="314" y="570" type="curve" smooth="yes"/>
      <point x="366" y="572"/>
      <point x="416" y="517"/>
      <point x="439" y="461" type="curve" smooth="yes"/>
      <point x="441" y="455"/>
      <point x="450" y="447"/>
      <point x="460" y="447" type="curve" smooth="yes"/>
      <point x="466" y="447"/>
      <point x="471" y="451"/>
      <point x="471" y="458" type="curve" smooth="yes"/>
      <point x="471" y="485"/>
      <point x="457" y="520"/>
      <point x="447" y="544" type="curve" smooth="yes"/>
      <point x="443" y="553"/>
      <point x="434" y="561"/>
      <point x="422" y="565" type="curve" smooth="yes"/>
      <point x="402" y="572"/>
      <point x="359" y="586"/>
      <point x="311" y="584" type="curve" smooth="yes"/>
      <point x="310" y="583"/>
      <point x="309" y="586"/>
      <point x="309" y="590" type="curve" smooth="yes"/>
      <point x="310" y="604"/>
      <point x="314" y="638"/>
      <point x="315" y="648" type="curve"/>
      <point x="315" y="655"/>
      <point x="313" y="658"/>
      <point x="310" y="658" type="curve" smooth="yes"/>
      <point x="305" y="658"/>
      <point x="302" y="657"/>
      <point x="301" y="645" type="curve" smooth="yes"/>
      <point x="298" y="590" type="line" smooth="yes"/>
      <point x="297" y="586"/>
      <point x="298" y="584"/>
      <point x="295" y="583" type="curve" smooth="yes"/>
      <point x="136" y="582"/>
      <point x="74" y="512"/>
      <point x="74" y="441" type="curve" smooth="yes"/>
      <point x="74" y="384"/>
      <point x="149" y="334"/>
      <point x="248" y="296" type="curve" smooth="yes"/>
      <point x="255" y="293"/>
      <point x="258" y="289"/>
      <point x="257" y="281" type="curve" smooth="yes"/>
      <point x="227" y="28" type="line" smooth="yes"/>
      <point x="227" y="21"/>
      <point x="223" y="20"/>
      <point x="219" y="22" type="curve"/>
      <point x="156" y="37"/>
      <point x="100" y="65"/>
      <point x="77" y="161" type="curve" smooth="yes"/>
      <point x="74" y="166"/>
      <point x="71" y="172"/>
      <point x="65" y="172" type="curve" smooth="yes"/>
      <point x="57" y="172"/>
      <point x="50" y="166"/>
      <point x="50" y="159" type="curve"/>
      <point x="53" y="135"/>
      <point x="54" y="89"/>
      <point x="62" y="66" type="curve" smooth="yes"/>
      <point x="65" y="60"/>
      <point x="72" y="54"/>
      <point x="77" y="49" type="curve" smooth="yes"/>
      <point x="111" y="28"/>
      <point x="167" y="9"/>
      <point x="216" y="10" type="curve" smooth="yes"/>
      <point x="219" y="10"/>
      <point x="223" y="7"/>
      <point x="223" y="2" type="curve"/>
      <point x="216" y="-71" type="line" smooth="yes"/>
      <point x="215" y="-75"/>
      <point x="218" y="-82"/>
    </contour>
    <contour>
      <point x="254" y="13" type="curve"/>
      <point x="242" y="13"/>
      <point x="240" y="17"/>
      <point x="241" y="25" type="curve"/>
      <point x="271" y="281" type="line" smooth="yes"/>
      <point x="272" y="288"/>
      <point x="275" y="289"/>
      <point x="281" y="287" type="curve"/>
      <point x="390" y="242"/>
      <point x="435" y="204"/>
      <point x="435" y="147" type="curve" smooth="yes"/>
      <point x="435" y="74"/>
      <point x="350" y="10"/>
    </contour>
    <contour>
      <point x="259" y="335" type="curve"/>
      <point x="170" y="367"/>
      <point x="117" y="415"/>
      <point x="117" y="458" type="curve" smooth="yes"/>
      <point x="117" y="528"/>
      <point x="194" y="578"/>
      <point x="286" y="575" type="curve"/>
      <point x="291" y="575"/>
      <point x="296" y="572"/>
      <point x="295" y="566" type="curve"/>
      <point x="267" y="339" type="line"/>
      <point x="267" y="335"/>
      <point x="264" y="333"/>
    </contour>
  </outline>
</glyph>
<glyph name="comma" format="1">
  <advance width="203"/>
  <unicode hex="002C"/>
  <outline>
    <contour>
      <point x="37" y="-147" type="curve" smooth="yes"/>
      <point x="87" y="-147"/>
      <point x="170" y="-92"/>
      <point x="170" y="9" type="curve" smooth="yes"/>
      <point x="170" y="70"/>
      <point x="130" y="113"/>
      <point x="84" y="113" type="curve" smooth="yes"/>
      <point x="62" y="113"/>
      <point x="43" y="98"/>
      <point x="43" y="79" type="curve" smooth="yes"/>
      <point x="43" y="60"/>
      <point x="58" y="48"/>
      <point x="81" y="41" type="curve" smooth="yes"/>
      <point x="114" y="34"/>
      <point x="143" y="15"/>
      <point x="143" y="-30" type="curve" smooth="yes"/>
      <point x="143" y="-86"/>
      <point x="86" y="-141"/>
      <point x="32" y="-140" type="curve" smooth="yes"/>
      <point x="23" y="-139"/>
      <point x="19" y="-141"/>
      <point x="19" y="-143" type="curve" smooth="yes"/>
      <point x="19" y="-146"/>
      <point x="25" y="-147"/>
    </contour>
  </outline>
</glyph>
<glyph name="hyphen" format="1">
  <advance width="345"/>
  <unicode hex="002D"/>
  <outline>
    <contour>
      <point x="44" y="225" type="curve"/>
      <point x="125" y="229"/>
      <point x="204" y="234"/>
      <point x="282" y="238" type="curve" smooth="yes"/>
      <point x="302" y="240"/>
      <point x="309" y="247"/>
      <point x="309" y="253" type="curve" smooth="yes"/>
      <point x="309" y="255"/>
      <point x="304" y="255"/>
      <point x="299" y="255" type="curve"/>
      <point x="218" y="250"/>
      <point x="137" y="245"/>
      <point x="57" y="240" type="curve"/>
      <point x="44" y="240"/>
      <point x="37" y="232"/>
      <point x="37" y="226" type="curve" smooth="yes"/>
      <point x="37" y="225"/>
      <point x="38" y="225"/>
    </contour>
  </outline>
</glyph>
<glyph name="zero" format="1">
  <advance width="535"/>
  <unicode hex="0030"/>
  <outline>
    <contour>
      <point x="262" y="-14" type="curve" smooth="yes"/>
      <point x="422" y="-14"/>
      <point x="490" y="153"/>
      <point x="490" y="292" type="curve" smooth="yes"/>
      <point x="490" y="426"/>
      <point x="420" y="582"/>
      <point x="272" y="582" type="curve" smooth="yes"/>
      <point x="112" y="582"/>
      <point x="44" y="420"/>
      <point x="44" y="279" type="curve" smooth="yes"/>
      <point x="44" y="142"/>
      <point x="114" y="-14"/>
    </contour>
    <contour>
      <point x="284" y="-3" type="curve" smooth="yes"/>
      <point x="155" y="-3"/>
      <point x="92" y="150"/>
      <point x="92" y="296" type="curve" smooth="yes"/>
      <point x="92" y="441"/>
      <point x="132" y="570"/>
      <point x="247" y="570" type="curve" smooth="yes"/>
      <point x="376" y="570"/>
      <point x="443" y="420"/>
      <point x="443" y="274" type="curve" smooth="yes"/>
      <point x="443" y="129"/>
      <point x="399" y="-3"/>
    </contour>
  </outline>
</glyph>
<glyph name="one" format="1">
  <advance width="535"/>
  <unicode hex="0031"/>
  <outline>
    <contour>
      <point x="123" y="-3" type="curve" smooth="yes"/>
      <point x="167" y="-3"/>
      <point x="230" y="2"/>
      <point x="279" y="2" type="curve" smooth="yes"/>
      <point x="326" y="2"/>
      <point x="385" y="-3"/>
      <point x="432" y="-3" type="curve" smooth="yes"/>
      <point x="443" y="-3"/>
      <point x="449" y="0"/>
      <point x="449" y="3" type="curve" smooth="yes"/>
      <point x="449" y="4"/>
      <point x="441" y="8"/>
      <point x="426" y="9" type="curve" smooth="yes"/>
      <point x="324" y="14"/>
      <point x="300" y="16"/>
      <point x="300" y="84" type="curve" smooth="yes"/>
      <point x="300" y="510" type="line" smooth="yes"/>
      <point x="300" y="538"/>
      <point x="301" y="561"/>
      <point x="303" y="579" type="curve"/>
      <point x="305" y="586"/>
      <point x="298" y="590"/>
      <point x="292" y="590" type="curve" smooth="yes"/>
      <point x="288" y="590"/>
      <point x="283" y="589"/>
      <point x="268" y="564" type="curve" smooth="yes"/>
      <point x="253" y="535"/>
      <point x="226" y="515"/>
      <point x="140" y="516" type="curve" smooth="yes"/>
      <point x="129" y="516"/>
      <point x="120" y="514"/>
      <point x="120" y="509" type="curve" smooth="yes"/>
      <point x="120" y="503"/>
      <point x="133" y="502"/>
      <point x="146" y="502" type="curve" smooth="yes"/>
      <point x="245" y="499"/>
      <point x="256" y="492"/>
      <point x="256" y="434" type="curve" smooth="yes"/>
      <point x="256" y="86" type="line" smooth="yes"/>
      <point x="256" y="18"/>
      <point x="222" y="12"/>
      <point x="124" y="9" type="curve" smooth="yes"/>
      <point x="112" y="8"/>
      <point x="105" y="4"/>
      <point x="105" y="3" type="curve" smooth="yes"/>
      <point x="105" y="0"/>
      <point x="109" y="-3"/>
    </contour>
  </outline>
</glyph>
<glyph name="four" format="1">
  <advance width="535"/>
  <unicode hex="0034"/>
  <outline>
    <contour>
      <point x="290" y="-3" type="curve" smooth="yes"/>
      <point x="343" y="-3"/>
      <point x="353" y="2"/>
      <point x="403" y="2" type="curve" smooth="yes"/>
      <point x="448" y="2"/>
      <point x="458" y="-3"/>
      <point x="508" y="-3" type="curve" smooth="yes"/>
      <point x="515" y="-3"/>
      <point x="522" y="0"/>
      <point x="522" y="3" type="curve" smooth="yes"/>
      <point x="522" y="5"/>
      <point x="510" y="8"/>
      <point x="501" y="9" type="curve" smooth="yes"/>
      <point x="436" y="9"/>
      <point x="423" y="19"/>
      <point x="423" y="49" type="curve" smooth="yes"/>
      <point x="423" y="171" type="line" smooth="yes"/>
      <point x="423" y="172"/>
      <point x="433" y="176"/>
      <point x="440" y="177" type="curve"/>
      <point x="450" y="178"/>
      <point x="464" y="179"/>
      <point x="479" y="179" type="curve" smooth="yes"/>
      <point x="499" y="179"/>
      <point x="521" y="178"/>
      <point x="540" y="178" type="curve" smooth="yes"/>
      <point x="545" y="178"/>
      <point x="567" y="178"/>
      <point x="567" y="194" type="curve" smooth="yes"/>
      <point x="567" y="202"/>
      <point x="561" y="206"/>
      <point x="553" y="206" type="curve"/>
      <point x="525" y="205"/>
      <point x="503" y="204"/>
      <point x="479" y="204" type="curve" smooth="yes"/>
      <point x="464" y="204"/>
      <point x="448" y="204"/>
      <point x="429" y="205" type="curve"/>
      <point x="425" y="205"/>
      <point x="422" y="208"/>
      <point x="422" y="211" type="curve" smooth="yes"/>
      <point x="422" y="333" type="line" smooth="yes"/>
      <point x="422" y="375"/>
      <point x="422" y="397"/>
      <point x="412" y="397" type="curve" smooth="yes"/>
      <point x="408" y="397"/>
      <point x="393" y="395"/>
      <point x="383" y="384" type="curve"/>
      <point x="378" y="380"/>
      <point x="378" y="376"/>
      <point x="378" y="362" type="curve" smooth="yes"/>
      <point x="378" y="214" type="line" smooth="yes"/>
      <point x="378" y="210"/>
      <point x="371" y="206"/>
      <point x="366" y="206" type="curve" smooth="yes"/>
      <point x="76" y="206" type="line" smooth="yes"/>
      <point x="71" y="206"/>
      <point x="74" y="212"/>
      <point x="76" y="215" type="curve" smooth="yes"/>
      <point x="429" y="583" type="line"/>
      <point x="435" y="590"/>
      <point x="436" y="594"/>
      <point x="429" y="594" type="curve" smooth="yes"/>
      <point x="425" y="594" type="line" smooth="yes"/>
      <point x="417" y="594"/>
      <point x="408" y="584"/>
      <point x="397" y="572" type="curve" smooth="yes"/>
      <point x="61" y="219" type="line" smooth="yes"/>
      <point x="44" y="202"/>
      <point x="37" y="194"/>
      <point x="20" y="181" type="curve"/>
      <point x="19" y="180"/>
      <point x="19" y="179"/>
      <point x="19" y="178" type="curve" smooth="yes"/>
      <point x="19" y="174"/>
      <point x="25" y="168"/>
      <point x="31" y="168" type="curve" smooth="yes"/>
      <point x="138" y="167"/>
      <point x="234" y="175"/>
      <point x="361" y="175" type="curve" smooth="yes"/>
      <point x="366" y="175"/>
      <point x="378" y="171"/>
      <point x="378" y="163" type="curve" smooth="yes"/>
      <point x="378" y="49" type="line" smooth="yes"/>
      <point x="378" y="18"/>
      <point x="365" y="9"/>
      <point x="292" y="9" type="curve" smooth="yes"/>
      <point x="284" y="8"/>
      <point x="272" y="6"/>
      <point x="272" y="3" type="curve" smooth="yes"/>
      <point x="272" y="-1"/>
      <point x="283" y="-3"/>
    </contour>
  </outline>
</glyph>
<glyph name="eight" format="1">
  <advance width="535"/>
  <unicode hex="0038"/>
  <outline>
    <contour>
      <point x="257" y="-14" type="curve" smooth="yes"/>
      <point x="365" y="-14"/>
      <point x="469" y="52"/>
      <point x="469" y="152" type="curve" smooth="yes"/>
      <point x="469" y="224"/>
      <point x="422" y="270"/>
      <point x="339" y="317" type="curve" smooth="yes"/>
      <point x="327" y="323"/>
      <point x="327" y="326"/>
      <point x="344" y="336" type="curve" smooth="yes"/>
      <point x="365" y="348"/>
      <point x="381" y="355"/>
      <point x="398" y="366" type="curve" smooth="yes"/>
      <point x="426" y="388"/>
      <point x="447" y="414"/>
      <point x="447" y="458" type="curve" smooth="yes"/>
      <point x="447" y="533"/>
      <point x="364" y="582"/>
      <point x="278" y="582" type="curve" smooth="yes"/>
      <point x="182" y="582"/>
      <point x="83" y="529"/>
      <point x="83" y="440" type="curve" smooth="yes"/>
      <point x="83" y="373"/>
      <point x="133" y="326"/>
      <point x="205" y="283" type="curve" smooth="yes"/>
      <point x="215" y="278"/>
      <point x="218" y="276"/>
      <point x="208" y="271" type="curve" smooth="yes"/>
      <point x="153" y="246"/>
      <point x="66" y="211"/>
      <point x="66" y="130" type="curve" smooth="yes"/>
      <point x="66" y="44"/>
      <point x="157" y="-14"/>
    </contour>
    <contour>
      <point x="273" y="-2" type="curve" smooth="yes"/>
      <point x="171" y="-2"/>
      <point x="111" y="67"/>
      <point x="111" y="136" type="curve" smooth="yes"/>
      <point x="111" y="197"/>
      <point x="142" y="233"/>
      <point x="206" y="265" type="curve" smooth="yes"/>
      <point x="214" y="269"/>
      <point x="220" y="271"/>
      <point x="224" y="271" type="curve" smooth="yes"/>
      <point x="233" y="271"/>
      <point x="242" y="267"/>
      <point x="254" y="260" type="curve"/>
      <point x="338" y="222"/>
      <point x="424" y="164"/>
      <point x="424" y="104" type="curve" smooth="yes"/>
      <point x="424" y="47"/>
      <point x="359" y="-2"/>
    </contour>
    <contour>
      <point x="322" y="331" type="curve"/>
      <point x="314" y="327"/>
      <point x="305" y="330"/>
      <point x="298" y="334" type="curve"/>
      <point x="196" y="387"/>
      <point x="128" y="404"/>
      <point x="128" y="477" type="curve" smooth="yes"/>
      <point x="128" y="529"/>
      <point x="207" y="571"/>
      <point x="275" y="571" type="curve" smooth="yes"/>
      <point x="360" y="571"/>
      <point x="402" y="525"/>
      <point x="402" y="471" type="curve" smooth="yes"/>
      <point x="402" y="414"/>
      <point x="387" y="367"/>
    </contour>
  </outline>
</glyph>
<glyph name="less" format="1">
  <advance width="560"/>
  <unicode hex="003C"/>
  <outline>
    <contour>
      <point x="496" y="6" type="line" smooth="yes"/>
      <point x="499" y="5"/>
      <point x="503" y="5"/>
      <point x="503" y="8" type="curve" smooth="yes"/>
      <point x="503" y="11"/>
      <point x="500" y="22"/>
      <point x="496" y="23" type="curve" smooth="yes"/>
      <point x="80" y="233" type="line"/>
      <point x="79" y="233"/>
      <point x="79" y="234"/>
      <point x="80" y="234" type="curve"/>
      <point x="493" y="442" type="line" smooth="yes"/>
      <point x="500" y="445"/>
      <point x="503" y="454"/>
      <point x="503" y="458" type="curve" smooth="yes"/>
      <point x="503" y="459"/>
      <point x="501" y="461"/>
      <point x="500" y="461" type="curve" smooth="yes"/>
      <point x="500" y="461"/>
      <point x="499" y="459"/>
      <point x="498" y="459" type="curve" smooth="yes"/>
      <point x="65" y="245" type="line" smooth="yes"/>
      <point x="59" y="243"/>
      <point x="55" y="233"/>
      <point x="55" y="230" type="curve" smooth="yes"/>
      <point x="55" y="228"/>
      <point x="62" y="225"/>
      <point x="69" y="222" type="curve" smooth="yes"/>
    </contour>
  </outline>
</glyph>
<glyph name="question" format="1">
  <advance width="474"/>
  <unicode hex="003F"/>
  <outline>
    <contour>
      <point x="159" y="181" type="curve" smooth="yes"/>
      <point x="163" y="181"/>
      <point x="166" y="195"/>
      <point x="168" y="206" type="curve" smooth="yes"/>
      <point x="175" y="248"/>
      <point x="183" y="284"/>
      <point x="231" y="307" type="curve" smooth="yes"/>
      <point x="266" y="324"/>
      <point x="285" y="333"/>
      <point x="330" y="352" type="curve" smooth="yes"/>
      <point x="362" y="368"/>
      <point x="379" y="387"/>
      <point x="379" y="429" type="curve" smooth="yes"/>
      <point x="379" y="478"/>
      <point x="340" y="561"/>
      <point x="269" y="614" type="curve" smooth="yes"/>
      <point x="228" y="645"/>
      <point x="180" y="661"/>
      <point x="139" y="661" type="curve" smooth="yes"/>
      <point x="113" y="661"/>
      <point x="88" y="645"/>
      <point x="88" y="625" type="curve" smooth="yes"/>
      <point x="88" y="598"/>
      <point x="107" y="569"/>
      <point x="135" y="569" type="curve" smooth="yes"/>
      <point x="147" y="569"/>
      <point x="156" y="571"/>
      <point x="165" y="574" type="curve" smooth="yes"/>
      <point x="174" y="576"/>
      <point x="184" y="578"/>
      <point x="195" y="578" type="curve" smooth="yes"/>
      <point x="304" y="577"/>
      <point x="368" y="518"/>
      <point x="368" y="451" type="curve" smooth="yes"/>
      <point x="368" y="420"/>
      <point x="324" y="393"/>
      <point x="271" y="374" type="curve" smooth="yes"/>
      <point x="161" y="326"/>
      <point x="125" y="310"/>
      <point x="125" y="277" type="curve" smooth="yes"/>
      <point x="125" y="245"/>
      <point x="138" y="225"/>
      <point x="146" y="206" type="curve" smooth="yes"/>
      <point x="152" y="191"/>
      <point x="154" y="181"/>
    </contour>
    <contour>
      <point x="171" y="-13" type="curve" smooth="yes"/>
      <point x="204" y="-15"/>
      <point x="232" y="10"/>
      <point x="234" y="43" type="curve" smooth="yes"/>
      <point x="236" y="76"/>
      <point x="211" y="104"/>
      <point x="178" y="106" type="curve" smooth="yes"/>
      <point x="146" y="109"/>
      <point x="117" y="83"/>
      <point x="115" y="50" type="curve" smooth="yes"/>
      <point x="113" y="17"/>
      <point x="139" y="-11"/>
    </contour>
  </outline>
</glyph>
<glyph name="at" format="1">
  <advance width="944"/>
  <unicode hex="0040"/>
  <outline>
    <contour>
      <point x="481" y="-131" type="curve" smooth="yes"/>
      <point x="617" y="-131"/>
      <point x="796" y="-41"/>
      <point x="796" y="-17" type="curve" smooth="yes"/>
      <point x="796" y="-15"/>
      <point x="796" y="-13"/>
      <point x="793" y="-13" type="curve" smooth="yes"/>
      <point x="791" y="-13"/>
      <point x="788" y="-15"/>
      <point x="786" y="-16" type="curve" smooth="yes"/>
      <point x="700" y="-80"/>
      <point x="581" y="-118"/>
      <point x="496" y="-118" type="curve" smooth="yes"/>
      <point x="301" y="-118"/>
      <point x="86" y="-19"/>
      <point x="86" y="184" type="curve" smooth="yes"/>
      <point x="86" y="383"/>
      <point x="281" y="494"/>
      <point x="497" y="494" type="curve" smooth="yes"/>
      <point x="713" y="494"/>
      <point x="849" y="371"/>
      <point x="849" y="237" type="curve" smooth="yes"/>
      <point x="849" y="139"/>
      <point x="757" y="74"/>
      <point x="633" y="74" type="curve" smooth="yes"/>
      <point x="612" y="74"/>
      <point x="608" y="88"/>
      <point x="608" y="103" type="curve" smooth="yes"/>
      <point x="608" y="112"/>
      <point x="610" y="122"/>
      <point x="611" y="131" type="curve"/>
      <point x="635" y="272" type="line" smooth="yes"/>
      <point x="636" y="288"/>
      <point x="648" y="327"/>
      <point x="655" y="352" type="curve"/>
      <point x="658" y="356"/>
      <point x="650" y="356"/>
      <point x="646" y="356" type="curve" smooth="yes"/>
      <point x="642" y="356"/>
      <point x="638" y="336"/>
      <point x="614" y="336" type="curve" smooth="yes"/>
      <point x="609" y="336"/>
      <point x="600" y="341"/>
      <point x="586" y="345" type="curve" smooth="yes"/>
      <point x="572" y="350"/>
      <point x="541" y="355"/>
      <point x="516" y="355" type="curve" smooth="yes"/>
      <point x="398" y="355"/>
      <point x="287" y="279"/>
      <point x="287" y="156" type="curve" smooth="yes"/>
      <point x="287" y="86"/>
      <point x="353" y="47"/>
      <point x="435" y="47" type="curve" smooth="yes"/>
      <point x="520" y="47"/>
      <point x="559" y="84"/>
      <point x="571" y="84" type="curve" smooth="yes"/>
      <point x="584" y="84"/>
      <point x="585" y="47"/>
      <point x="633" y="47" type="curve" smooth="yes"/>
      <point x="756" y="47"/>
      <point x="865" y="118"/>
      <point x="865" y="240" type="curve" smooth="yes"/>
      <point x="865" y="384"/>
      <point x="709" y="507"/>
      <point x="522" y="507" type="curve" smooth="yes"/>
      <point x="281" y="507"/>
      <point x="72" y="395"/>
      <point x="72" y="181" type="curve" smooth="yes"/>
      <point x="72" y="-3"/>
      <point x="257" y="-131"/>
    </contour>
    <contour>
      <point x="451" y="64" type="curve" smooth="yes"/>
      <point x="395" y="64"/>
      <point x="328" y="89"/>
      <point x="328" y="171" type="curve" smooth="yes"/>
      <point x="328" y="284"/>
      <point x="415" y="344"/>
      <point x="496" y="344" type="curve" smooth="yes"/>
      <point x="564" y="344"/>
      <point x="598" y="325"/>
      <point x="598" y="277" type="curve" smooth="yes"/>
      <point x="598" y="271"/>
      <point x="598" y="266"/>
      <point x="597" y="260" type="curve"/>
      <point x="579" y="148" type="line" smooth="yes"/>
      <point x="573" y="108"/>
      <point x="557" y="98"/>
      <point x="540" y="89" type="curve" smooth="yes"/>
      <point x="510" y="73"/>
      <point x="486" y="64"/>
    </contour>
  </outline>
</glyph>
<glyph name="B" format="1">
  <advance width="652"/>
  <unicode hex="0042"/>
  <outline>
    <contour>
      <point x="56" y="-5" type="curve" smooth="yes"/>
      <point x="115" y="-5"/>
      <point x="136" y="0"/>
      <point x="194" y="0" type="curve" smooth="yes"/>
      <point x="238" y="0"/>
      <point x="279" y="-4"/>
      <point x="299" y="-4" type="curve" smooth="yes"/>
      <point x="376" y="-4"/>
      <point x="440" y="8"/>
      <point x="491" y="29" type="curve" smooth="yes"/>
      <point x="545" y="51"/>
      <point x="601" y="87"/>
      <point x="601" y="179" type="curve" smooth="yes"/>
      <point x="601" y="281"/>
      <point x="474" y="329"/>
      <point x="355" y="328" type="curve" smooth="yes"/>
      <point x="347" y="327"/>
      <point x="347" y="333"/>
      <point x="355" y="333" type="curve" smooth="yes"/>
      <point x="408" y="332"/>
      <point x="478" y="351"/>
      <point x="510" y="371" type="curve" smooth="yes"/>
      <point x="543" y="396"/>
      <point x="563" y="423"/>
      <point x="563" y="465" type="curve" smooth="yes"/>
      <point x="563" y="566"/>
      <point x="477" y="607"/>
      <point x="298" y="607" type="curve" smooth="yes"/>
      <point x="235" y="607"/>
      <point x="219" y="603"/>
      <point x="177" y="603" type="curve" smooth="yes"/>
      <point x="133" y="603"/>
      <point x="123" y="604"/>
      <point x="67" y="604" type="curve" smooth="yes"/>
      <point x="47" y="604"/>
      <point x="32" y="603"/>
      <point x="30" y="601" type="curve" smooth="yes"/>
      <point x="30" y="598"/>
      <point x="40" y="595"/>
      <point x="63" y="595" type="curve" smooth="yes"/>
      <point x="117" y="594"/>
      <point x="130" y="589"/>
      <point x="130" y="547" type="curve" smooth="yes"/>
      <point x="130" y="65" type="line" smooth="yes"/>
      <point x="130" y="17"/>
      <point x="119" y="11"/>
      <point x="56" y="6" type="curve" smooth="yes"/>
      <point x="34" y="5"/>
      <point x="24" y="2"/>
      <point x="24" y="-1" type="curve" smooth="yes"/>
      <point x="24" y="-4"/>
      <point x="39" y="-5"/>
    </contour>
    <contour>
      <point x="295" y="4" type="curve" smooth="yes"/>
      <point x="217" y="4"/>
      <point x="174" y="23"/>
      <point x="174" y="83" type="curve" smooth="yes"/>
      <point x="174" y="285" type="line" smooth="yes"/>
      <point x="174" y="301"/>
      <point x="196" y="326"/>
      <point x="261" y="326" type="curve" smooth="yes"/>
      <point x="360" y="326"/>
      <point x="432" y="320"/>
      <point x="479" y="294" type="curve" smooth="yes"/>
      <point x="531" y="268"/>
      <point x="548" y="225"/>
      <point x="548" y="165" type="curve" smooth="yes"/>
      <point x="548" y="71"/>
      <point x="456" y="4"/>
    </contour>
    <contour>
      <point x="248" y="335" type="curve" smooth="yes"/>
      <point x="222" y="335"/>
      <point x="174" y="338"/>
      <point x="174" y="375" type="curve" smooth="yes"/>
      <point x="174" y="547" type="line" smooth="yes"/>
      <point x="174" y="581"/>
      <point x="192" y="598"/>
      <point x="281" y="598" type="curve" smooth="yes"/>
      <point x="479" y="598"/>
      <point x="515" y="526"/>
      <point x="515" y="462" type="curve" smooth="yes"/>
      <point x="515" y="406"/>
      <point x="482" y="375"/>
      <point x="449" y="357" type="curve" smooth="yes"/>
      <point x="398" y="339"/>
      <point x="329" y="335"/>
    </contour>
  </outline>
</glyph>
<glyph name="D" format="1">
  <advance width="869"/>
  <unicode hex="0044"/>
  <outline>
    <contour>
      <point x="427" y="-7" type="curve" smooth="yes"/>
      <point x="646" y="-7"/>
      <point x="825" y="138"/>
      <point x="825" y="316" type="curve" smooth="yes"/>
      <point x="825" y="469"/>
      <point x="698" y="609"/>
      <point x="392" y="609" type="curve" smooth="yes"/>
      <point x="361" y="609"/>
      <point x="245" y="601"/>
      <point x="196" y="601" type="curve" smooth="yes"/>
      <point x="141" y="601"/>
      <point x="128" y="603"/>
      <point x="69" y="603" type="curve" smooth="yes"/>
      <point x="50" y="603"/>
      <point x="37" y="601"/>
      <point x="37" y="598" type="curve" smooth="yes"/>
      <point x="37" y="594"/>
      <point x="48" y="593"/>
      <point x="73" y="592" type="curve" smooth="yes"/>
      <point x="138" y="589"/>
      <point x="146" y="581"/>
      <point x="146" y="542" type="curve" smooth="yes"/>
      <point x="146" y="89" type="line" smooth="yes"/>
      <point x="146" y="20"/>
      <point x="133" y="11"/>
      <point x="73" y="7" type="curve" smooth="yes"/>
      <point x="48" y="6"/>
      <point x="37" y="6"/>
      <point x="37" y="1" type="curve" smooth="yes"/>
      <point x="37" y="-4"/>
      <point x="50" y="-5"/>
      <point x="69" y="-5" type="curve" smooth="yes"/>
      <point x="130" y="-5"/>
      <point x="144" y="0"/>
      <point x="190" y="0" type="curve" smooth="yes"/>
      <point x="280" y="0"/>
      <point x="404" y="-7"/>
    </contour>
    <contour>
      <point x="401" y="7" type="curve" smooth="yes"/>
      <point x="270" y="7"/>
      <point x="192" y="25"/>
      <point x="192" y="108" type="curve" smooth="yes"/>
      <point x="192" y="533" type="line" smooth="yes"/>
      <point x="192" y="593"/>
      <point x="238" y="598"/>
      <point x="382" y="598" type="curve" smooth="yes"/>
      <point x="583" y="598"/>
      <point x="772" y="493"/>
      <point x="772" y="300" type="curve" smooth="yes"/>
      <point x="772" y="129"/>
      <point x="619" y="7"/>
    </contour>
  </outline>
</glyph>
<glyph name="F" format="1">
  <advance width="605"/>
  <unicode hex="0046"/>
  <outline>
    <contour>
      <point x="75" y="-4" type="curve" smooth="yes"/>
      <point x="127" y="-4"/>
      <point x="148" y="-2"/>
      <point x="195" y="1" type="curve" smooth="yes"/>
      <point x="233" y="-2"/>
      <point x="245" y="-4"/>
      <point x="297" y="-4" type="curve" smooth="yes"/>
      <point x="314" y="-4"/>
      <point x="326" y="-3"/>
      <point x="326" y="1" type="curve" smooth="yes"/>
      <point x="326" y="6"/>
      <point x="314" y="8"/>
      <point x="288" y="11" type="curve" smooth="yes"/>
      <point x="227" y="16"/>
      <point x="209" y="26"/>
      <point x="209" y="56" type="curve" smooth="yes"/>
      <point x="206" y="156"/>
      <point x="206" y="221"/>
      <point x="206" y="273" type="curve" smooth="yes"/>
      <point x="206" y="291"/>
      <point x="218" y="297"/>
      <point x="234" y="298" type="curve" smooth="yes"/>
      <point x="267" y="299"/>
      <point x="300" y="299"/>
      <point x="335" y="299" type="curve" smooth="yes"/>
      <point x="363" y="299"/>
      <point x="405" y="299"/>
      <point x="431" y="299" type="curve" smooth="yes"/>
      <point x="455" y="299"/>
      <point x="462" y="287"/>
      <point x="473" y="246" type="curve" smooth="yes"/>
      <point x="478" y="227"/>
      <point x="485" y="217"/>
      <point x="493" y="217" type="curve" smooth="yes"/>
      <point x="500" y="217"/>
      <point x="501" y="225"/>
      <point x="501" y="234" type="curve"/>
      <point x="500" y="258"/>
      <point x="498" y="288"/>
      <point x="498" y="308" type="curve" smooth="yes"/>
      <point x="498" y="324"/>
      <point x="500" y="352"/>
      <point x="502" y="371" type="curve" smooth="yes"/>
      <point x="503" y="381"/>
      <point x="498" y="387"/>
      <point x="491" y="387" type="curve" smooth="yes"/>
      <point x="484" y="387"/>
      <point x="477" y="375"/>
      <point x="474" y="365" type="curve" smooth="yes"/>
      <point x="464" y="329"/>
      <point x="453" y="311"/>
      <point x="421" y="311" type="curve" smooth="yes"/>
      <point x="357" y="311"/>
      <point x="285" y="309"/>
      <point x="219" y="309" type="curve" smooth="yes"/>
      <point x="210" y="309"/>
      <point x="206" y="320"/>
      <point x="206" y="331" type="curve"/>
      <point x="205" y="357"/>
      <point x="205" y="384"/>
      <point x="205" y="418" type="curve" smooth="yes"/>
      <point x="205" y="453"/>
      <point x="205" y="513"/>
      <point x="206" y="541" type="curve" smooth="yes"/>
      <point x="207" y="569"/>
      <point x="214" y="590"/>
      <point x="245" y="590" type="curve" smooth="yes"/>
      <point x="458" y="590" type="line" smooth="yes"/>
      <point x="499" y="590"/>
      <point x="514" y="579"/>
      <point x="528" y="556" type="curve" smooth="yes"/>
      <point x="536" y="542"/>
      <point x="544" y="515"/>
      <point x="552" y="488" type="curve" smooth="yes"/>
      <point x="554" y="478"/>
      <point x="558" y="473"/>
      <point x="565" y="473" type="curve" smooth="yes"/>
      <point x="570" y="473"/>
      <point x="574" y="480"/>
      <point x="574" y="492" type="curve" smooth="yes"/>
      <point x="574" y="510"/>
      <point x="570" y="572"/>
      <point x="565" y="599" type="curve" smooth="yes"/>
      <point x="563" y="606"/>
      <point x="552" y="608"/>
      <point x="543" y="608" type="curve" smooth="yes"/>
      <point x="525" y="608"/>
      <point x="483" y="601"/>
      <point x="431" y="600" type="curve"/>
      <point x="382" y="600"/>
      <point x="307" y="600"/>
      <point x="258" y="600" type="curve" smooth="yes"/>
      <point x="190" y="600"/>
      <point x="150" y="603"/>
      <point x="89" y="603" type="curve" smooth="yes"/>
      <point x="69" y="603"/>
      <point x="55" y="602"/>
      <point x="54" y="598" type="curve" smooth="yes"/>
      <point x="54" y="594"/>
      <point x="65" y="591"/>
      <point x="91" y="589" type="curve" smooth="yes"/>
      <point x="146" y="586"/>
      <point x="161" y="576"/>
      <point x="161" y="544" type="curve" smooth="yes"/>
      <point x="161" y="55" type="line" smooth="yes"/>
      <point x="161" y="22"/>
      <point x="139" y="14"/>
      <point x="83" y="10" type="curve" smooth="yes"/>
      <point x="58" y="7"/>
      <point x="47" y="5"/>
      <point x="47" y="1" type="curve" smooth="yes"/>
      <point x="47" y="-4"/>
      <point x="59" y="-4"/>
    </contour>
  </outline>
</glyph>
<glyph name="G" format="1">
  <advance width="875"/>
  <unicode hex="0047"/>
  <outline>
    <contour>
      <point x="469" y="-15" type="curve" smooth="yes"/>
      <point x="620" y="-15"/>
      <point x="729" y="44"/>
      <point x="752" y="47" type="curve" smooth="yes"/>
      <point x="768" y="49"/>
      <point x="768" y="60"/>
      <point x="768" y="65" type="curve" smooth="yes"/>
      <point x="768" y="70"/>
      <point x="757" y="74"/>
      <point x="752" y="81" type="curve"/>
      <point x="748" y="86"/>
      <point x="744" y="89"/>
      <point x="744" y="95" type="curve" smooth="yes"/>
      <point x="744" y="120" type="line" smooth="yes"/>
      <point x="744" y="144"/>
      <point x="749" y="182"/>
      <point x="749" y="202" type="curve" smooth="yes"/>
      <point x="750" y="235"/>
      <point x="762" y="254"/>
      <point x="803" y="255" type="curve"/>
      <point x="813" y="257"/>
      <point x="830" y="262"/>
      <point x="830" y="263" type="curve" smooth="yes"/>
      <point x="830" y="266"/>
      <point x="812" y="267"/>
      <point x="806" y="267" type="curve" smooth="yes"/>
      <point x="769" y="267"/>
      <point x="752" y="263"/>
      <point x="716" y="263" type="curve" smooth="yes"/>
      <point x="661" y="263"/>
      <point x="639" y="267"/>
      <point x="590" y="267" type="curve" smooth="yes"/>
      <point x="584" y="267"/>
      <point x="567" y="266"/>
      <point x="567" y="263" type="curve" smooth="yes"/>
      <point x="567" y="260"/>
      <point x="583" y="255"/>
      <point x="590" y="255" type="curve" smooth="yes"/>
      <point x="620" y="254"/>
      <point x="675" y="253"/>
      <point x="695" y="247" type="curve" smooth="yes"/>
      <point x="704" y="244"/>
      <point x="708" y="228"/>
      <point x="708" y="199" type="curve" smooth="yes"/>
      <point x="708" y="155"/>
      <point x="706" y="139"/>
      <point x="706" y="122" type="curve" smooth="yes"/>
      <point x="706" y="85"/>
      <point x="688" y="56"/>
      <point x="668" y="40" type="curve" smooth="yes"/>
      <point x="647" y="24"/>
      <point x="595" y="0"/>
      <point x="486" y="0" type="curve" smooth="yes"/>
      <point x="296" y="0"/>
      <point x="112" y="110"/>
      <point x="112" y="299" type="curve" smooth="yes"/>
      <point x="112" y="455"/>
      <point x="255" y="597"/>
      <point x="465" y="597" type="curve" smooth="yes"/>
      <point x="588" y="597"/>
      <point x="657" y="565"/>
      <point x="684" y="539" type="curve" smooth="yes"/>
      <point x="703" y="521"/>
      <point x="710" y="489"/>
      <point x="717" y="464" type="curve"/>
      <point x="721" y="451"/>
      <point x="725" y="434"/>
      <point x="739" y="434" type="curve" smooth="yes"/>
      <point x="747" y="434"/>
      <point x="753" y="444"/>
      <point x="753" y="453" type="curve" smooth="yes"/>
      <point x="753" y="477"/>
      <point x="747" y="535"/>
      <point x="740" y="571" type="curve" smooth="yes"/>
      <point x="739" y="578"/>
      <point x="736" y="579"/>
      <point x="729" y="582" type="curve" smooth="yes"/>
      <point x="695" y="594"/>
      <point x="540" y="613"/>
      <point x="477" y="613" type="curve" smooth="yes"/>
      <point x="250" y="613"/>
      <point x="57" y="470"/>
      <point x="57" y="286" type="curve" smooth="yes"/>
      <point x="57" y="115"/>
      <point x="249" y="-15"/>
    </contour>
  </outline>
</glyph>
<glyph name="H" format="1">
  <advance width="948"/>
  <unicode hex="0048"/>
  <outline>
    <contour>
      <point x="79" y="-3" type="curve" smooth="yes"/>
      <point x="130" y="-3"/>
      <point x="143" y="-4"/>
      <point x="177" y="-4" type="curve" smooth="yes"/>
      <point x="212" y="-4"/>
      <point x="227" y="-3"/>
      <point x="275" y="-3" type="curve" smooth="yes"/>
      <point x="296" y="-3"/>
      <point x="306" y="-2"/>
      <point x="306" y="1" type="curve" smooth="yes"/>
      <point x="306" y="4"/>
      <point x="296" y="7"/>
      <point x="270" y="10" type="curve" smooth="yes"/>
      <point x="218" y="12"/>
      <point x="193" y="10"/>
      <point x="193" y="32" type="curve" smooth="yes"/>
      <point x="193" y="280" type="line" smooth="yes"/>
      <point x="193" y="290"/>
      <point x="197" y="295"/>
      <point x="204" y="295" type="curve" smooth="yes"/>
      <point x="742" y="295" type="line" smooth="yes"/>
      <point x="751" y="295"/>
      <point x="753" y="288"/>
      <point x="753" y="279" type="curve" smooth="yes"/>
      <point x="753" y="36" type="line" smooth="yes"/>
      <point x="753" y="15"/>
      <point x="738" y="14"/>
      <point x="679" y="10" type="curve" smooth="yes"/>
      <point x="653" y="7"/>
      <point x="642" y="4"/>
      <point x="642" y="1" type="curve" smooth="yes"/>
      <point x="642" y="-2"/>
      <point x="652" y="-3"/>
      <point x="673" y="-3" type="curve" smooth="yes"/>
      <point x="722" y="-3"/>
      <point x="734" y="-4"/>
      <point x="769" y="-4" type="curve" smooth="yes"/>
      <point x="802" y="-4"/>
      <point x="814" y="-3"/>
      <point x="866" y="-3" type="curve" smooth="yes"/>
      <point x="887" y="-3"/>
      <point x="898" y="-2"/>
      <point x="898" y="1" type="curve" smooth="yes"/>
      <point x="898" y="4"/>
      <point x="887" y="7"/>
      <point x="860" y="10" type="curve" smooth="yes"/>
      <point x="805" y="12"/>
      <point x="798" y="16"/>
      <point x="798" y="34" type="curve" smooth="yes"/>
      <point x="798" y="560" type="line" smooth="yes"/>
      <point x="798" y="583"/>
      <point x="802" y="587"/>
      <point x="859" y="589" type="curve" smooth="yes"/>
      <point x="886" y="590"/>
      <point x="897" y="593"/>
      <point x="897" y="596" type="curve" smooth="yes"/>
      <point x="897" y="599"/>
      <point x="887" y="601"/>
      <point x="865" y="601" type="curve" smooth="yes"/>
      <point x="814" y="601"/>
      <point x="804" y="601"/>
      <point x="772" y="601" type="curve" smooth="yes"/>
      <point x="736" y="601"/>
      <point x="722" y="601"/>
      <point x="674" y="601" type="curve" smooth="yes"/>
      <point x="653" y="601"/>
      <point x="643" y="599"/>
      <point x="643" y="596" type="curve" smooth="yes"/>
      <point x="643" y="593"/>
      <point x="653" y="590"/>
      <point x="679" y="589" type="curve" smooth="yes"/>
      <point x="739" y="586"/>
      <point x="753" y="579"/>
      <point x="753" y="560" type="curve" smooth="yes"/>
      <point x="753" y="320" type="line" smooth="yes"/>
      <point x="753" y="310"/>
      <point x="749" y="306"/>
      <point x="741" y="306" type="curve" smooth="yes"/>
      <point x="206" y="306" type="line" smooth="yes"/>
      <point x="199" y="306"/>
      <point x="193" y="309"/>
      <point x="193" y="320" type="curve" smooth="yes"/>
      <point x="193" y="560" type="line" smooth="yes"/>
      <point x="193" y="583"/>
      <point x="213" y="587"/>
      <point x="267" y="589" type="curve" smooth="yes"/>
      <point x="293" y="590"/>
      <point x="303" y="593"/>
      <point x="303" y="596" type="curve" smooth="yes"/>
      <point x="303" y="599"/>
      <point x="294" y="601"/>
      <point x="273" y="601" type="curve" smooth="yes"/>
      <point x="224" y="601"/>
      <point x="211" y="601"/>
      <point x="177" y="601" type="curve" smooth="yes"/>
      <point x="144" y="601"/>
      <point x="132" y="601"/>
      <point x="80" y="601" type="curve" smooth="yes"/>
      <point x="59" y="601"/>
      <point x="48" y="599"/>
      <point x="48" y="596" type="curve" smooth="yes"/>
      <point x="48" y="593"/>
      <point x="60" y="590"/>
      <point x="87" y="589" type="curve" smooth="yes"/>
      <point x="143" y="587"/>
      <point x="148" y="580"/>
      <point x="148" y="560" type="curve" smooth="yes"/>
      <point x="148" y="34" type="line" smooth="yes"/>
      <point x="148" y="14"/>
      <point x="141" y="12"/>
      <point x="85" y="10" type="curve" smooth="yes"/>
      <point x="58" y="7"/>
      <point x="47" y="4"/>
      <point x="47" y="1" type="curve" smooth="yes"/>
      <point x="47" y="-2"/>
      <point x="58" y="-3"/>
    </contour>
  </outline>
</glyph>
<glyph name="J" format="1">
  <advance width="312"/>
  <unicode hex="004A"/>
  <outline>
    <contour>
      <point x="-4" y="-200" type="curve" smooth="yes"/>
      <point x="54" y="-200"/>
      <point x="88" y="-176"/>
      <point x="122" y="-139" type="curve" smooth="yes"/>
      <point x="155" y="-99"/>
      <point x="191" y="-37"/>
      <point x="191" y="49" type="curve" smooth="yes"/>
      <point x="191" y="553" type="line" smooth="yes"/>
      <point x="191" y="575"/>
      <point x="224" y="583"/>
      <point x="281" y="587" type="curve" smooth="yes"/>
      <point x="307" y="589"/>
      <point x="318" y="593"/>
      <point x="318" y="597" type="curve" smooth="yes"/>
      <point x="318" y="601"/>
      <point x="305" y="602"/>
      <point x="286" y="602" type="curve" smooth="yes"/>
      <point x="236" y="602"/>
      <point x="218" y="601"/>
      <point x="174" y="601" type="curve" smooth="yes"/>
      <point x="130" y="601"/>
      <point x="114" y="602"/>
      <point x="63" y="602" type="curve" smooth="yes"/>
      <point x="45" y="602"/>
      <point x="31" y="601"/>
      <point x="31" y="597" type="curve" smooth="yes"/>
      <point x="31" y="593"/>
      <point x="42" y="589"/>
      <point x="69" y="587" type="curve" smooth="yes"/>
      <point x="127" y="583"/>
      <point x="146" y="575"/>
      <point x="146" y="553" type="curve" smooth="yes"/>
      <point x="146" y="15" type="line" smooth="yes"/>
      <point x="146" y="-105"/>
      <point x="105" y="-181"/>
      <point x="41" y="-181" type="curve" smooth="yes"/>
      <point x="12" y="-181"/>
      <point x="-8" y="-167"/>
      <point x="-29" y="-138" type="curve" smooth="yes"/>
      <point x="-45" y="-114"/>
      <point x="-61" y="-104"/>
      <point x="-78" y="-104" type="curve" smooth="yes"/>
      <point x="-94" y="-104"/>
      <point x="-116" y="-126"/>
      <point x="-116" y="-149" type="curve" smooth="yes"/>
      <point x="-116" y="-183"/>
      <point x="-85" y="-200"/>
    </contour>
  </outline>
</glyph>
<glyph name="K" format="1">
  <advance width="774"/>
  <unicode hex="004B"/>
  <outline>
    <contour>
      <point x="71" y="-5" type="curve" smooth="yes"/>
      <point x="125" y="-5"/>
      <point x="140" y="1"/>
      <point x="185" y="1" type="curve" smooth="yes"/>
      <point x="224" y="1"/>
      <point x="230" y="-5"/>
      <point x="281" y="-5" type="curve" smooth="yes"/>
      <point x="298" y="-5"/>
      <point x="308" y="-3"/>
      <point x="308" y="0" type="curve" smooth="yes"/>
      <point x="308" y="3"/>
      <point x="298" y="5"/>
      <point x="272" y="7" type="curve" smooth="yes"/>
      <point x="215" y="10"/>
      <point x="202" y="17"/>
      <point x="201" y="39" type="curve" smooth="yes"/>
      <point x="198" y="171"/>
      <point x="197" y="220"/>
      <point x="197" y="275" type="curve" smooth="yes"/>
      <point x="197" y="282"/>
      <point x="196" y="296"/>
      <point x="204" y="296" type="curve" smooth="yes"/>
      <point x="210" y="296"/>
      <point x="224" y="289"/>
      <point x="236" y="281" type="curve"/>
      <point x="583" y="36" type="line" smooth="yes"/>
      <point x="593" y="29"/>
      <point x="600" y="24"/>
      <point x="599" y="20" type="curve" smooth="yes"/>
      <point x="598" y="13"/>
      <point x="583" y="12"/>
      <point x="555" y="10" type="curve"/>
      <point x="534" y="9"/>
      <point x="524" y="8"/>
      <point x="524" y="4" type="curve" smooth="yes"/>
      <point x="524" y="0"/>
      <point x="535" y="-1"/>
      <point x="551" y="-1" type="curve" smooth="yes"/>
      <point x="593" y="-1"/>
      <point x="604" y="0"/>
      <point x="628" y="0" type="curve" smooth="yes"/>
      <point x="678" y="0"/>
      <point x="702" y="-5"/>
      <point x="756" y="-5" type="curve" smooth="yes"/>
      <point x="772" y="-5"/>
      <point x="783" y="-4"/>
      <point x="783" y="0" type="curve" smooth="yes"/>
      <point x="783" y="4"/>
      <point x="771" y="7"/>
      <point x="745" y="7" type="curve" smooth="yes"/>
      <point x="735" y="4"/>
      <point x="690" y="18"/>
      <point x="631" y="59" type="curve" smooth="yes"/>
      <point x="266" y="322" type="line" smooth="yes"/>
      <point x="258" y="329"/>
      <point x="254" y="336"/>
      <point x="260" y="340" type="curve"/>
      <point x="360" y="408"/>
      <point x="501" y="514"/>
      <point x="601" y="567" type="curve" smooth="yes"/>
      <point x="649" y="592"/>
      <point x="655" y="594"/>
      <point x="725" y="592" type="curve" smooth="yes"/>
      <point x="754" y="593"/>
      <point x="766" y="596"/>
      <point x="766" y="600" type="curve" smooth="yes"/>
      <point x="766" y="603"/>
      <point x="756" y="605"/>
      <point x="741" y="605" type="curve" smooth="yes"/>
      <point x="726" y="605"/>
      <point x="679" y="601"/>
      <point x="613" y="601" type="curve" smooth="yes"/>
      <point x="550" y="601" type="line" smooth="yes"/>
      <point x="530" y="601"/>
      <point x="516" y="600"/>
      <point x="516" y="597" type="curve" smooth="yes"/>
      <point x="516" y="593"/>
      <point x="523" y="590"/>
      <point x="547" y="590" type="curve" smooth="yes"/>
      <point x="585" y="589"/>
      <point x="599" y="589"/>
      <point x="599" y="580" type="curve" smooth="yes"/>
      <point x="599" y="573"/>
      <point x="584" y="563"/>
      <point x="559" y="544" type="curve" smooth="yes"/>
      <point x="244" y="338" type="line"/>
      <point x="231" y="330"/>
      <point x="214" y="322"/>
      <point x="204" y="322" type="curve" smooth="yes"/>
      <point x="197" y="322"/>
      <point x="197" y="336"/>
      <point x="197" y="341" type="curve" smooth="yes"/>
      <point x="197" y="559" type="line" smooth="yes"/>
      <point x="197" y="577"/>
      <point x="201" y="590"/>
      <point x="261" y="592" type="curve" smooth="yes"/>
      <point x="287" y="592"/>
      <point x="297" y="596"/>
      <point x="297" y="598" type="curve" smooth="yes"/>
      <point x="297" y="601"/>
      <point x="287" y="603"/>
      <point x="271" y="603" type="curve" smooth="yes"/>
      <point x="219" y="603"/>
      <point x="214" y="601"/>
      <point x="176" y="601" type="curve" smooth="yes"/>
      <point x="134" y="601"/>
      <point x="124" y="603"/>
      <point x="70" y="603" type="curve" smooth="yes"/>
      <point x="53" y="603"/>
      <point x="42" y="601"/>
      <point x="42" y="598" type="curve" smooth="yes"/>
      <point x="42" y="594"/>
      <point x="54" y="590"/>
      <point x="81" y="590" type="curve" smooth="yes"/>
      <point x="143" y="589"/>
      <point x="152" y="580"/>
      <point x="152" y="552" type="curve" smooth="yes"/>
      <point x="152" y="39" type="line" smooth="yes"/>
      <point x="152" y="15"/>
      <point x="137" y="10"/>
      <point x="81" y="7" type="curve" smooth="yes"/>
      <point x="54" y="5"/>
      <point x="42" y="3"/>
      <point x="42" y="0" type="curve" smooth="yes"/>
      <point x="42" y="-3"/>
      <point x="53" y="-5"/>
    </contour>
  </outline>
</glyph>
<glyph name="Q" format="1">
  <advance width="877"/>
  <unicode hex="0051"/>
  <outline>
    <contour>
      <point x="915" y="-248" type="curve" smooth="yes"/>
      <point x="961" y="-248"/>
      <point x="1013" y="-237"/>
      <point x="1061" y="-214" type="curve" smooth="yes"/>
      <point x="1079" y="-205"/>
      <point x="1083" y="-200"/>
      <point x="1083" y="-187" type="curve" smooth="yes"/>
      <point x="1083" y="-181"/>
      <point x="1077" y="-179"/>
      <point x="1070" y="-179" type="curve" smooth="yes"/>
      <point x="1061" y="-179"/>
      <point x="1050" y="-182"/>
      <point x="1041" y="-184" type="curve"/>
      <point x="1028" y="-188"/>
      <point x="992" y="-193"/>
      <point x="955" y="-193" type="curve" smooth="yes"/>
      <point x="857" y="-193"/>
      <point x="767" y="-180"/>
      <point x="677" y="-129" type="curve" smooth="yes"/>
      <point x="613" y="-95"/>
      <point x="571" y="-65"/>
      <point x="518" y="-24" type="curve"/>
      <point x="515" y="-21"/>
      <point x="514" y="-18"/>
      <point x="514" y="-15" type="curve" smooth="yes"/>
      <point x="514" y="-13"/>
      <point x="515" y="-10"/>
      <point x="523" y="-8" type="curve" smooth="yes"/>
      <point x="722" y="19"/>
      <point x="821" y="157"/>
      <point x="821" y="293" type="curve" smooth="yes"/>
      <point x="821" y="489"/>
      <point x="640" y="614"/>
      <point x="444" y="614" type="curve" smooth="yes"/>
      <point x="189" y="614"/>
      <point x="57" y="465"/>
      <point x="57" y="307" type="curve" smooth="yes"/>
      <point x="57" y="145"/>
      <point x="173" y="33"/>
      <point x="320" y="-2" type="curve" smooth="yes"/>
      <point x="379" y="-15"/>
      <point x="430" y="-37"/>
      <point x="480" y="-66" type="curve" smooth="yes"/>
      <point x="576" y="-117"/>
      <point x="615" y="-146"/>
      <point x="677" y="-180" type="curve" smooth="yes"/>
      <point x="753" y="-224"/>
      <point x="818" y="-248"/>
    </contour>
    <contour>
      <point x="453" y="-2" type="curve" smooth="yes"/>
      <point x="240" y="-2"/>
      <point x="111" y="146"/>
      <point x="111" y="340" type="curve" smooth="yes"/>
      <point x="111" y="495"/>
      <point x="223" y="600"/>
      <point x="423" y="600" type="curve" smooth="yes"/>
      <point x="643" y="600"/>
      <point x="767" y="448"/>
      <point x="767" y="261" type="curve" smooth="yes"/>
      <point x="767" y="108"/>
      <point x="653" y="-2"/>
    </contour>
  </outline>
</glyph>
<glyph name="S" format="1">
  <advance width="542"/>
  <unicode hex="0053"/>
  <outline>
    <contour>
      <point x="243" y="-16" type="curve" smooth="yes"/>
      <point x="397" y="-16"/>
      <point x="498" y="52"/>
      <point x="498" y="154" type="curve" smooth="yes"/>
      <point x="498" y="238"/>
      <point x="427" y="279"/>
      <point x="305" y="326" type="curve" smooth="yes"/>
      <point x="190" y="373"/>
      <point x="120" y="420"/>
      <point x="120" y="477" type="curve" smooth="yes"/>
      <point x="120" y="549"/>
      <point x="175" y="600"/>
      <point x="271" y="600" type="curve" smooth="yes"/>
      <point x="352" y="600"/>
      <point x="415" y="577"/>
      <point x="455" y="470" type="curve" smooth="yes"/>
      <point x="458" y="463"/>
      <point x="469" y="457"/>
      <point x="478" y="457" type="curve" smooth="yes"/>
      <point x="484" y="457"/>
      <point x="489" y="460"/>
      <point x="489" y="467" type="curve" smooth="yes"/>
      <point x="489" y="497"/>
      <point x="475" y="545"/>
      <point x="464" y="570" type="curve" smooth="yes"/>
      <point x="460" y="580"/>
      <point x="450" y="590"/>
      <point x="438" y="594" type="curve" smooth="yes"/>
      <point x="413" y="602"/>
      <point x="370" y="614"/>
      <point x="315" y="614" type="curve" smooth="yes"/>
      <point x="142" y="614"/>
      <point x="76" y="541"/>
      <point x="76" y="458" type="curve" smooth="yes"/>
      <point x="76" y="386"/>
      <point x="160" y="338"/>
      <point x="286" y="286" type="curve" smooth="yes"/>
      <point x="403" y="235"/>
      <point x="450" y="203"/>
      <point x="450" y="134" type="curve" smooth="yes"/>
      <point x="450" y="55"/>
      <point x="386" y="-3"/>
      <point x="287" y="-3" type="curve" smooth="yes"/>
      <point x="180" y="-3"/>
      <point x="115" y="27"/>
      <point x="82" y="160" type="curve" smooth="yes"/>
      <point x="80" y="166"/>
      <point x="71" y="171"/>
      <point x="67" y="171" type="curve" smooth="yes"/>
      <point x="60" y="171"/>
      <point x="50" y="166"/>
      <point x="50" y="157" type="curve"/>
      <point x="51" y="128"/>
      <point x="54" y="77"/>
      <point x="63" y="49" type="curve" smooth="yes"/>
      <point x="66" y="41"/>
      <point x="73" y="34"/>
      <point x="78" y="29" type="curve"/>
      <point x="122" y="0"/>
      <point x="177" y="-16"/>
    </contour>
  </outline>
</glyph>
<glyph name="U" format="1">
  <advance width="876"/>
  <unicode hex="0055"/>
  <outline>
    <contour>
      <point x="433" y="-14" type="curve" smooth="yes"/>
      <point x="604" y="-14"/>
      <point x="732" y="93"/>
      <point x="739" y="250" type="curve" smooth="yes"/>
      <point x="743" y="323"/>
      <point x="743" y="397"/>
      <point x="752" y="531" type="curve" smooth="yes"/>
      <point x="756" y="575"/>
      <point x="771" y="583"/>
      <point x="822" y="589" type="curve" smooth="yes"/>
      <point x="852" y="592"/>
      <point x="864" y="595"/>
      <point x="864" y="598" type="curve" smooth="yes"/>
      <point x="864" y="601"/>
      <point x="852" y="602"/>
      <point x="835" y="602" type="curve" smooth="yes"/>
      <point x="803" y="602"/>
      <point x="778" y="599"/>
      <point x="742" y="599" type="curve" smooth="yes"/>
      <point x="708" y="599"/>
      <point x="692" y="600"/>
      <point x="655" y="601" type="curve" smooth="yes"/>
      <point x="638" y="601"/>
      <point x="625" y="602"/>
      <point x="625" y="598" type="curve" smooth="yes"/>
      <point x="625" y="595"/>
      <point x="647" y="593"/>
      <point x="667" y="589" type="curve" smooth="yes"/>
      <point x="708" y="582"/>
      <point x="726" y="569"/>
      <point x="729" y="515" type="curve" smooth="yes"/>
      <point x="731" y="407"/>
      <point x="731" y="324"/>
      <point x="731" y="285" type="curve" smooth="yes"/>
      <point x="731" y="139"/>
      <point x="650" y="36"/>
      <point x="458" y="36" type="curve" smooth="yes"/>
      <point x="287" y="36"/>
      <point x="166" y="104"/>
      <point x="166" y="258" type="curve" smooth="yes"/>
      <point x="166" y="532" type="line" smooth="yes"/>
      <point x="166" y="577"/>
      <point x="183" y="585"/>
      <point x="228" y="589" type="curve" smooth="yes"/>
      <point x="254" y="591"/>
      <point x="266" y="594"/>
      <point x="266" y="598" type="curve" smooth="yes"/>
      <point x="266" y="601"/>
      <point x="255" y="602"/>
      <point x="239" y="602" type="curve" smooth="yes"/>
      <point x="207" y="601"/>
      <point x="182" y="599"/>
      <point x="149" y="599" type="curve" smooth="yes"/>
      <point x="111" y="599"/>
      <point x="87" y="602"/>
      <point x="50" y="602" type="curve" smooth="yes"/>
      <point x="34" y="602"/>
      <point x="22" y="601"/>
      <point x="22" y="599" type="curve" smooth="yes"/>
      <point x="22" y="595"/>
      <point x="33" y="592"/>
      <point x="59" y="590" type="curve" smooth="yes"/>
      <point x="110" y="586"/>
      <point x="121" y="578"/>
      <point x="121" y="527" type="curve" smooth="yes"/>
      <point x="121" y="236" type="line" smooth="yes"/>
      <point x="121" y="86"/>
      <point x="226" y="-14"/>
    </contour>
  </outline>
</glyph>
<glyph name="V" format="1">
  <advance width="768"/>
  <unicode hex="0056"/>
  <outline>
    <contour>
      <point x="361" y="-12" type="curve" smooth="yes"/>
      <point x="365" y="-12"/>
      <point x="369" y="-9"/>
      <point x="371" y="-6" type="curve" smooth="yes"/>
      <point x="382" y="16"/>
      <point x="394" y="62"/>
      <point x="400" y="71" type="curve" smooth="yes"/>
      <point x="647" y="530" type="line" smooth="yes"/>
      <point x="666" y="565"/>
      <point x="680" y="587"/>
      <point x="744" y="591" type="curve" smooth="yes"/>
      <point x="771" y="592"/>
      <point x="782" y="595"/>
      <point x="782" y="598" type="curve" smooth="yes"/>
      <point x="782" y="601"/>
      <point x="771" y="602"/>
      <point x="754" y="602" type="curve" smooth="yes"/>
      <point x="728" y="602"/>
      <point x="681" y="599"/>
      <point x="642" y="599" type="curve" smooth="yes"/>
      <point x="605" y="599"/>
      <point x="571" y="600"/>
      <point x="545" y="600" type="curve" smooth="yes"/>
      <point x="528" y="600"/>
      <point x="517" y="600"/>
      <point x="517" y="596" type="curve" smooth="yes"/>
      <point x="517" y="594"/>
      <point x="531" y="591"/>
      <point x="568" y="589" type="curve" smooth="yes"/>
      <point x="648" y="582"/>
      <point x="662" y="579"/>
      <point x="611" y="484" type="curve" smooth="yes"/>
      <point x="393" y="82" type="line" smooth="yes"/>
      <point x="389" y="73"/>
      <point x="382" y="76"/>
      <point x="379" y="81" type="curve" smooth="yes"/>
      <point x="179" y="500" type="line"/>
      <point x="173" y="512"/>
      <point x="162" y="529"/>
      <point x="162" y="552" type="curve" smooth="yes"/>
      <point x="162" y="575"/>
      <point x="190" y="587"/>
      <point x="228" y="590" type="curve" smooth="yes"/>
      <point x="258" y="592"/>
      <point x="270" y="596"/>
      <point x="270" y="598" type="curve" smooth="yes"/>
      <point x="270" y="602"/>
      <point x="258" y="603"/>
      <point x="241" y="603" type="curve" smooth="yes"/>
      <point x="221" y="603"/>
      <point x="184" y="600"/>
      <point x="145" y="600" type="curve" smooth="yes"/>
      <point x="100" y="600"/>
      <point x="59" y="603"/>
      <point x="28" y="603" type="curve" smooth="yes"/>
      <point x="12" y="603"/>
      <point x="0" y="602"/>
      <point x="0" y="599" type="curve" smooth="yes"/>
      <point x="0" y="596"/>
      <point x="14" y="592"/>
      <point x="40" y="591" type="curve" smooth="yes"/>
      <point x="79" y="587"/>
      <point x="99" y="555"/>
      <point x="116" y="519" type="curve" smooth="yes"/>
      <point x="331" y="82" type="line" smooth="yes"/>
      <point x="338" y="58"/>
      <point x="345" y="7"/>
      <point x="350" y="-6" type="curve" smooth="yes"/>
      <point x="352" y="-10"/>
      <point x="357" y="-12"/>
    </contour>
  </outline>
</glyph>
<glyph name="W" format="1">
  <advance width="1142"/>
  <unicode hex="0057"/>
  <outline>
    <contour>
      <point x="414" y="-17" type="curve" smooth="yes"/>
      <point x="424" y="-17"/>
      <point x="433" y="-1"/>
      <point x="439" y="12" type="curve" smooth="yes"/>
      <point x="491" y="109"/>
      <point x="533" y="195"/>
      <point x="585" y="293" type="curve" smooth="yes"/>
      <point x="591" y="304"/>
      <point x="594" y="306"/>
      <point x="599" y="298" type="curve"/>
      <point x="658" y="192"/>
      <point x="691" y="114"/>
      <point x="755" y="4" type="curve" smooth="yes"/>
      <point x="760" y="-4"/>
      <point x="770" y="-13"/>
      <point x="776" y="-13" type="curve" smooth="yes"/>
      <point x="785" y="-13"/>
      <point x="794" y="2"/>
      <point x="796" y="8" type="curve" smooth="yes"/>
      <point x="1019" y="536" type="line"/>
      <point x="1041" y="584"/>
      <point x="1063" y="591"/>
      <point x="1107" y="593" type="curve" smooth="yes"/>
      <point x="1131" y="595"/>
      <point x="1141" y="597"/>
      <point x="1141" y="600" type="curve" smooth="yes"/>
      <point x="1141" y="603"/>
      <point x="1126" y="604"/>
      <point x="1104" y="604" type="curve" smooth="yes"/>
      <point x="1074" y="604"/>
      <point x="1056" y="603"/>
      <point x="1014" y="603" type="curve" smooth="yes"/>
      <point x="990" y="603"/>
      <point x="978" y="603"/>
      <point x="950" y="603" type="curve" smooth="yes"/>
      <point x="932" y="603"/>
      <point x="921" y="602"/>
      <point x="921" y="600" type="curve" smooth="yes"/>
      <point x="921" y="596"/>
      <point x="940" y="595"/>
      <point x="954" y="593" type="curve" smooth="yes"/>
      <point x="993" y="590"/>
      <point x="1000" y="585"/>
      <point x="1002" y="560" type="curve" smooth="yes"/>
      <point x="1002" y="553"/>
      <point x="1000" y="545"/>
      <point x="996" y="537" type="curve"/>
      <point x="923" y="325"/>
      <point x="834" y="127"/>
      <point x="793" y="45" type="curve"/>
      <point x="789" y="37"/>
      <point x="783" y="33"/>
      <point x="779" y="39" type="curve" smooth="yes"/>
      <point x="627" y="333" type="line"/>
      <point x="623" y="340"/>
      <point x="629" y="359"/>
      <point x="634" y="368" type="curve" smooth="yes"/>
      <point x="656" y="408"/>
      <point x="712" y="516"/>
      <point x="723" y="534" type="curve" smooth="yes"/>
      <point x="745" y="575"/>
      <point x="760" y="589"/>
      <point x="807" y="591" type="curve" smooth="yes"/>
      <point x="834" y="592"/>
      <point x="849" y="595"/>
      <point x="849" y="599" type="curve" smooth="yes"/>
      <point x="849" y="603"/>
      <point x="834" y="604"/>
      <point x="812" y="604" type="curve" smooth="yes"/>
      <point x="786" y="604"/>
      <point x="772" y="601"/>
      <point x="743" y="601" type="curve" smooth="yes"/>
      <point x="719" y="601"/>
      <point x="719" y="603"/>
      <point x="683" y="603" type="curve" smooth="yes"/>
      <point x="661" y="603"/>
      <point x="646" y="603"/>
      <point x="646" y="595" type="curve" smooth="yes"/>
      <point x="646" y="586"/>
      <point x="710" y="593"/>
      <point x="710" y="568" type="curve" smooth="yes"/>
      <point x="710" y="559"/>
      <point x="706" y="547"/>
      <point x="702" y="539" type="curve"/>
      <point x="693" y="521"/>
      <point x="647" y="423"/>
      <point x="622" y="377" type="curve" smooth="yes"/>
      <point x="613" y="359"/>
      <point x="608" y="362"/>
      <point x="599" y="377" type="curve" smooth="yes"/>
      <point x="589" y="394"/>
      <point x="523" y="515"/>
      <point x="506" y="563" type="curve" smooth="yes"/>
      <point x="505" y="566"/>
      <point x="503" y="570"/>
      <point x="503" y="572" type="curve" smooth="yes"/>
      <point x="503" y="592"/>
      <point x="565" y="593"/>
      <point x="565" y="598" type="curve" smooth="yes"/>
      <point x="565" y="602"/>
      <point x="548" y="603"/>
      <point x="523" y="603" type="curve" smooth="yes"/>
      <point x="514" y="603"/>
      <point x="486" y="601"/>
      <point x="456" y="601" type="curve" smooth="yes"/>
      <point x="422" y="601"/>
      <point x="403" y="604"/>
      <point x="368" y="604" type="curve" smooth="yes"/>
      <point x="353" y="604"/>
      <point x="342" y="603"/>
      <point x="342" y="600" type="curve" smooth="yes"/>
      <point x="342" y="596"/>
      <point x="353" y="592"/>
      <point x="376" y="591" type="curve" smooth="yes"/>
      <point x="440" y="590"/>
      <point x="445" y="580"/>
      <point x="464" y="554" type="curve" smooth="yes"/>
      <point x="569" y="345" type="line" smooth="yes"/>
      <point x="576" y="333"/>
      <point x="579" y="326"/>
      <point x="579" y="318" type="curve" smooth="yes"/>
      <point x="579" y="313"/>
      <point x="577" y="306"/>
      <point x="572" y="297" type="curve" smooth="yes"/>
      <point x="449" y="50" type="line"/>
      <point x="443" y="39"/>
      <point x="438" y="35"/>
      <point x="429" y="52" type="curve" smooth="yes"/>
      <point x="337" y="212"/>
      <point x="266" y="332"/>
      <point x="167" y="540" type="curve"/>
      <point x="163" y="552"/>
      <point x="156" y="564"/>
      <point x="156" y="573" type="curve" smooth="yes"/>
      <point x="156" y="581"/>
      <point x="164" y="588"/>
      <point x="190" y="589" type="curve" smooth="yes"/>
      <point x="228" y="591"/>
      <point x="244" y="593"/>
      <point x="244" y="597" type="curve" smooth="yes"/>
      <point x="244" y="602"/>
      <point x="231" y="603"/>
      <point x="211" y="603" type="curve" smooth="yes"/>
      <point x="191" y="603"/>
      <point x="154" y="601"/>
      <point x="115" y="601" type="curve" smooth="yes"/>
      <point x="80" y="601"/>
      <point x="62" y="604"/>
      <point x="23" y="604" type="curve" smooth="yes"/>
      <point x="10" y="604"/>
      <point x="0" y="603"/>
      <point x="0" y="600" type="curve" smooth="yes"/>
      <point x="0" y="596"/>
      <point x="11" y="595"/>
      <point x="33" y="592" type="curve" smooth="yes"/>
      <point x="67" y="588"/>
      <point x="85" y="587"/>
      <point x="98" y="569" type="curve"/>
      <point x="397" y="9" type="line" smooth="yes"/>
      <point x="403" y="-3"/>
      <point x="411" y="-17"/>
    </contour>
  </outline>
</glyph>
<glyph name="X" format="1">
  <advance width="848"/>
  <unicode hex="0058"/>
  <outline>
    <contour>
      <point x="30" y="-4" type="curve" smooth="yes"/>
      <point x="72" y="-4"/>
      <point x="132" y="0"/>
      <point x="189" y="0" type="curve" smooth="yes"/>
      <point x="224" y="0"/>
      <point x="258" y="0"/>
      <point x="276" y="0" type="curve" smooth="yes"/>
      <point x="293" y="0"/>
      <point x="305" y="1"/>
      <point x="305" y="5" type="curve" smooth="yes"/>
      <point x="305" y="8"/>
      <point x="295" y="11"/>
      <point x="272" y="14" type="curve"/>
      <point x="224" y="20"/>
      <point x="200" y="19"/>
      <point x="199" y="33" type="curve" smooth="yes"/>
      <point x="199" y="42"/>
      <point x="208" y="55"/>
      <point x="226" y="75" type="curve" smooth="yes"/>
      <point x="408" y="270" type="line" smooth="yes"/>
      <point x="417" y="279"/>
      <point x="423" y="279"/>
      <point x="437" y="266" type="curve" smooth="yes"/>
      <point x="612" y="83" type="line"/>
      <point x="623" y="72"/>
      <point x="629" y="61"/>
      <point x="629" y="52" type="curve" smooth="yes"/>
      <point x="628" y="33"/>
      <point x="620" y="21"/>
      <point x="575" y="15" type="curve" smooth="yes"/>
      <point x="558" y="13"/>
      <point x="536" y="11"/>
      <point x="536" y="6" type="curve" smooth="yes"/>
      <point x="536" y="3"/>
      <point x="549" y="1"/>
      <point x="566" y="1" type="curve" smooth="yes"/>
      <point x="592" y="1"/>
      <point x="615" y="3"/>
      <point x="656" y="3" type="curve" smooth="yes"/>
      <point x="706" y="3"/>
      <point x="778" y="-3"/>
      <point x="808" y="-3" type="curve" smooth="yes"/>
      <point x="825" y="-3"/>
      <point x="838" y="-2"/>
      <point x="838" y="2" type="curve" smooth="yes"/>
      <point x="838" y="6"/>
      <point x="826" y="8"/>
      <point x="797" y="11" type="curve" smooth="yes"/>
      <point x="762" y="13"/>
      <point x="712" y="50"/>
      <point x="675" y="86" type="curve" smooth="yes"/>
      <point x="462" y="305" type="line"/>
      <point x="453" y="318"/>
      <point x="460" y="322"/>
      <point x="478" y="342" type="curve" smooth="yes"/>
      <point x="628" y="511" type="line" smooth="yes"/>
      <point x="682" y="574"/>
      <point x="736" y="585"/>
      <point x="793" y="589" type="curve" smooth="yes"/>
      <point x="822" y="591"/>
      <point x="835" y="593"/>
      <point x="835" y="598" type="curve" smooth="yes"/>
      <point x="835" y="601"/>
      <point x="819" y="602"/>
      <point x="798" y="602" type="curve" smooth="yes"/>
      <point x="764" y="602"/>
      <point x="703" y="600"/>
      <point x="654" y="600" type="curve" smooth="yes"/>
      <point x="625" y="600"/>
      <point x="598" y="600"/>
      <point x="568" y="600" type="curve" smooth="yes"/>
      <point x="547" y="600"/>
      <point x="532" y="599"/>
      <point x="532" y="595" type="curve" smooth="yes"/>
      <point x="532" y="591"/>
      <point x="556" y="587"/>
      <point x="573" y="586" type="curve" smooth="yes"/>
      <point x="623" y="587"/>
      <point x="642" y="571"/>
      <point x="642" y="557" type="curve" smooth="yes"/>
      <point x="642" y="546"/>
      <point x="627" y="532"/>
      <point x="613" y="514" type="curve" smooth="yes"/>
      <point x="462" y="342" type="line" smooth="yes"/>
      <point x="448" y="327"/>
      <point x="442" y="324"/>
      <point x="422" y="343" type="curve" smooth="yes"/>
      <point x="255" y="519" type="line" smooth="yes"/>
      <point x="230" y="545"/>
      <point x="219" y="560"/>
      <point x="220" y="571" type="curve" smooth="yes"/>
      <point x="220" y="584"/>
      <point x="250" y="590"/>
      <point x="281" y="591" type="curve" smooth="yes"/>
      <point x="303" y="592"/>
      <point x="312" y="596"/>
      <point x="312" y="599" type="curve" smooth="yes"/>
      <point x="312" y="603"/>
      <point x="301" y="604"/>
      <point x="287" y="604" type="curve" smooth="yes"/>
      <point x="271" y="604"/>
      <point x="239" y="603"/>
      <point x="206" y="603" type="curve" smooth="yes"/>
      <point x="153" y="603"/>
      <point x="89" y="605"/>
      <point x="54" y="605" type="curve" smooth="yes"/>
      <point x="36" y="605"/>
      <point x="23" y="604"/>
      <point x="23" y="600" type="curve" smooth="yes"/>
      <point x="23" y="597"/>
      <point x="37" y="593"/>
      <point x="64" y="591" type="curve" smooth="yes"/>
      <point x="102" y="586"/>
      <point x="135" y="566"/>
      <point x="200" y="503" type="curve" smooth="yes"/>
      <point x="383" y="318" type="line" smooth="yes"/>
      <point x="409" y="292"/>
      <point x="396" y="276"/>
      <point x="376" y="258" type="curve"/>
      <point x="223" y="98" type="line" smooth="yes"/>
      <point x="173" y="47"/>
      <point x="79" y="18"/>
      <point x="43" y="15" type="curve" smooth="yes"/>
      <point x="8" y="10"/>
      <point x="-6" y="5"/>
      <point x="-6" y="1" type="curve" smooth="yes"/>
      <point x="-6" y="-3"/>
      <point x="9" y="-4"/>
    </contour>
  </outline>
</glyph>
<glyph name="Y" format="1">
  <advance width="655"/>
  <unicode hex="0059"/>
  <outline>
    <contour>
      <point x="222" y="-5" type="curve" smooth="yes"/>
      <point x="272" y="-5"/>
      <point x="295" y="-4"/>
      <point x="342" y="-4" type="curve" smooth="yes"/>
      <point x="385" y="-4"/>
      <point x="401" y="-5"/>
      <point x="451" y="-5" type="curve" smooth="yes"/>
      <point x="470" y="-5"/>
      <point x="483" y="-4"/>
      <point x="483" y="-1" type="curve" smooth="yes"/>
      <point x="483" y="2"/>
      <point x="472" y="4"/>
      <point x="446" y="5" type="curve" smooth="yes"/>
      <point x="391" y="8"/>
      <point x="358" y="18"/>
      <point x="358" y="45" type="curve" smooth="yes"/>
      <point x="358" y="246" type="line" smooth="yes"/>
      <point x="358" y="283"/>
      <point x="357" y="290"/>
      <point x="390" y="330" type="curve" smooth="yes"/>
      <point x="446" y="397"/>
      <point x="478" y="442"/>
      <point x="538" y="516" type="curve" smooth="yes"/>
      <point x="578" y="566"/>
      <point x="606" y="583"/>
      <point x="642" y="589" type="curve" smooth="yes"/>
      <point x="667" y="593"/>
      <point x="698" y="595"/>
      <point x="698" y="598" type="curve" smooth="yes"/>
      <point x="698" y="602"/>
      <point x="684" y="603"/>
      <point x="664" y="603" type="curve" smooth="yes"/>
      <point x="637" y="603"/>
      <point x="596" y="602"/>
      <point x="548" y="602" type="curve" smooth="yes"/>
      <point x="515" y="602"/>
      <point x="496" y="602"/>
      <point x="461" y="602" type="curve" smooth="yes"/>
      <point x="441" y="602"/>
      <point x="427" y="601"/>
      <point x="427" y="598" type="curve" smooth="yes"/>
      <point x="427" y="595"/>
      <point x="448" y="592"/>
      <point x="464" y="591" type="curve" smooth="yes"/>
      <point x="510" y="589"/>
      <point x="534" y="577"/>
      <point x="533" y="554" type="curve" smooth="yes"/>
      <point x="533" y="546"/>
      <point x="527" y="534"/>
      <point x="516" y="521" type="curve" smooth="yes"/>
      <point x="475" y="468"/>
      <point x="433" y="405"/>
      <point x="397" y="363" type="curve" smooth="yes"/>
      <point x="375" y="337"/>
      <point x="363" y="314"/>
      <point x="353" y="314" type="curve" smooth="yes"/>
      <point x="345" y="314"/>
      <point x="335" y="325"/>
      <point x="318" y="349" type="curve" smooth="yes"/>
      <point x="173" y="549" type="line" smooth="yes"/>
      <point x="165" y="559"/>
      <point x="157" y="567"/>
      <point x="157" y="575" type="curve" smooth="yes"/>
      <point x="157" y="585"/>
      <point x="181" y="589"/>
      <point x="216" y="590" type="curve" smooth="yes"/>
      <point x="243" y="592"/>
      <point x="257" y="594"/>
      <point x="257" y="597" type="curve" smooth="yes"/>
      <point x="257" y="600"/>
      <point x="244" y="601"/>
      <point x="226" y="601" type="curve" smooth="yes"/>
      <point x="204" y="601"/>
      <point x="177" y="600"/>
      <point x="144" y="600" type="curve" smooth="yes"/>
      <point x="96" y="600"/>
      <point x="63" y="601"/>
      <point x="32" y="601" type="curve" smooth="yes"/>
      <point x="13" y="601"/>
      <point x="0" y="600"/>
      <point x="0" y="597" type="curve" smooth="yes"/>
      <point x="0" y="594"/>
      <point x="14" y="596"/>
      <point x="43" y="590" type="curve" smooth="yes"/>
      <point x="78" y="582"/>
      <point x="104" y="557"/>
      <point x="121" y="535" type="curve" smooth="yes"/>
      <point x="285" y="320" type="line"/>
      <point x="292" y="312"/>
      <point x="313" y="279"/>
      <point x="313" y="258" type="curve" smooth="yes"/>
      <point x="313" y="45" type="line" smooth="yes"/>
      <point x="313" y="17"/>
      <point x="283" y="8"/>
      <point x="227" y="5" type="curve" smooth="yes"/>
      <point x="202" y="4"/>
      <point x="191" y="2"/>
      <point x="191" y="-1" type="curve" smooth="yes"/>
      <point x="191" y="-4"/>
      <point x="204" y="-5"/>
    </contour>
  </outline>
</glyph>
<glyph name="Z" format="1">
  <advance width="760"/>
  <unicode hex="005A"/>
  <outline>
    <contour>
      <point x="672" y="-5" type="curve" smooth="yes"/>
      <point x="684" y="-5"/>
      <point x="689" y="4"/>
      <point x="694" y="12" type="curve" smooth="yes"/>
      <point x="708" y="36"/>
      <point x="741" y="147"/>
      <point x="741" y="158" type="curve" smooth="yes"/>
      <point x="741" y="167"/>
      <point x="737" y="171"/>
      <point x="730" y="171" type="curve" smooth="yes"/>
      <point x="717" y="171"/>
      <point x="706" y="158"/>
      <point x="702" y="148" type="curve" smooth="yes"/>
      <point x="669" y="65"/>
      <point x="620" y="21"/>
      <point x="546" y="16" type="curve" smooth="yes"/>
      <point x="475" y="12"/>
      <point x="402" y="11"/>
      <point x="337" y="11" type="curve" smooth="yes"/>
      <point x="272" y="11"/>
      <point x="195" y="14"/>
      <point x="160" y="16" type="curve"/>
      <point x="142" y="18"/>
      <point x="136" y="25"/>
      <point x="136" y="32" type="curve" smooth="yes"/>
      <point x="136" y="36"/>
      <point x="137" y="40"/>
      <point x="140" y="43" type="curve" smooth="yes"/>
      <point x="301" y="187"/>
      <point x="472" y="355"/>
      <point x="636" y="505" type="curve" smooth="yes"/>
      <point x="718" y="582" type="line" smooth="yes"/>
      <point x="723" y="587"/>
      <point x="712" y="600"/>
      <point x="704" y="600" type="curve" smooth="yes"/>
      <point x="611" y="598"/>
      <point x="518" y="597"/>
      <point x="413" y="597" type="curve" smooth="yes"/>
      <point x="357" y="597"/>
      <point x="296" y="597"/>
      <point x="255" y="597" type="curve" smooth="yes"/>
      <point x="212" y="597"/>
      <point x="163" y="607"/>
      <point x="146" y="613" type="curve" smooth="yes"/>
      <point x="132" y="618"/>
      <point x="113" y="627"/>
      <point x="107" y="627" type="curve" smooth="yes"/>
      <point x="101" y="627"/>
      <point x="89" y="625"/>
      <point x="88" y="610" type="curve" smooth="yes"/>
      <point x="84" y="568"/>
      <point x="64" y="516"/>
      <point x="57" y="495" type="curve"/>
      <point x="54" y="485"/>
      <point x="48" y="472"/>
      <point x="48" y="464" type="curve" smooth="yes"/>
      <point x="49" y="457"/>
      <point x="55" y="453"/>
      <point x="62" y="455" type="curve" smooth="yes"/>
      <point x="80" y="457"/>
      <point x="90" y="483"/>
      <point x="96" y="496" type="curve"/>
      <point x="116" y="539"/>
      <point x="155" y="575"/>
      <point x="223" y="581" type="curve" smooth="yes"/>
      <point x="256" y="583"/>
      <point x="307" y="583"/>
      <point x="356" y="583" type="curve" smooth="yes"/>
      <point x="430" y="583"/>
      <point x="548" y="582"/>
      <point x="598" y="581" type="curve"/>
      <point x="620" y="580"/>
      <point x="625" y="577"/>
      <point x="625" y="573" type="curve" smooth="yes"/>
      <point x="625" y="570"/>
      <point x="623" y="568"/>
      <point x="620" y="565" type="curve" smooth="yes"/>
      <point x="455" y="411"/>
      <point x="281" y="249"/>
      <point x="115" y="96" type="curve" smooth="yes"/>
      <point x="83" y="68"/>
      <point x="35" y="20"/>
      <point x="35" y="11" type="curve"/>
      <point x="35" y="11"/>
      <point x="37" y="-3"/>
      <point x="44" y="-3" type="curve" smooth="yes"/>
      <point x="141" y="-3" type="line" smooth="yes"/>
      <point x="189" y="-3"/>
      <point x="241" y="-2"/>
      <point x="291" y="-2" type="curve" smooth="yes"/>
      <point x="403" y="-2"/>
      <point x="528" y="-5"/>
    </contour>
  </outline>
</glyph>
<glyph name="bracketleft" format="1">
  <advance width="352"/>
  <unicode hex="005B"/>
  <outline>
    <contour>
      <point x="141" y="-200" type="curve" smooth="yes"/>
      <point x="306" y="-200" type="line" smooth="yes"/>
      <point x="318" y="-200"/>
      <point x="332" y="-199"/>
      <point x="332" y="-194" type="curve" smooth="yes"/>
      <point x="332" y="-190"/>
      <point x="319" y="-188"/>
      <point x="306" y="-188" type="curve"/>
      <point x="175" y="-185" type="line" smooth="yes"/>
      <point x="163" y="-185"/>
      <point x="152" y="-179"/>
      <point x="152" y="-143" type="curve" smooth="yes"/>
      <point x="152" y="649" type="line" smooth="yes"/>
      <point x="152" y="681"/>
      <point x="158" y="686"/>
      <point x="175" y="688" type="curve" smooth="yes"/>
      <point x="306" y="690" type="line" smooth="yes"/>
      <point x="319" y="690"/>
      <point x="332" y="692"/>
      <point x="332" y="696" type="curve" smooth="yes"/>
      <point x="332" y="700"/>
      <point x="323" y="701"/>
      <point x="314" y="701" type="curve" smooth="yes"/>
      <point x="148" y="702" type="line" smooth="yes"/>
      <point x="116" y="702"/>
      <point x="110" y="702"/>
      <point x="110" y="668" type="curve" smooth="yes"/>
      <point x="110" y="-175" type="line" smooth="yes"/>
      <point x="110" y="-199"/>
      <point x="118" y="-200"/>
    </contour>
  </outline>
</glyph>
<glyph name="underscore" format="1">
  <advance width="630"/>
  <unicode hex="005F"/>
  <outline>
    <contour>
      <point x="4" y="-165" type="curve" smooth="yes"/>
      <point x="620" y="-165" type="line" smooth="yes"/>
      <point x="626" y="-165"/>
      <point x="630" y="-159"/>
      <point x="630" y="-155" type="curve" smooth="yes"/>
      <point x="630" y="-153"/>
      <point x="627" y="-151"/>
      <point x="626" y="-151" type="curve" smooth="yes"/>
      <point x="8" y="-151" type="line" smooth="yes"/>
      <point x="2" y="-151"/>
      <point x="0" y="-160"/>
      <point x="0" y="-161" type="curve" smooth="yes"/>
      <point x="0" y="-163"/>
      <point x="3" y="-165"/>
    </contour>
  </outline>
</glyph>
<glyph name="a" format="1">
  <advance width="435"/>
  <unicode hex="0061"/>
  <outline>
    <contour>
      <point x="140" y="-15" type="curve" smooth="yes"/>
      <point x="190" y="-15"/>
      <point x="248" y="11"/>
      <point x="287" y="55" type="curve"/>
      <point x="290" y="55" type="line"/>
      <point x="298" y="10"/>
      <point x="331" y="-15"/>
      <point x="360" y="-15" type="curve" smooth="yes"/>
      <point x="381" y="-15"/>
      <point x="403" y="4"/>
      <point x="428" y="33" type="curve" smooth="yes"/>
      <point x="431" y="36"/>
      <point x="434" y="43"/>
      <point x="434" y="46" type="curve" smooth="yes"/>
      <point x="434" y="48"/>
      <point x="433" y="52"/>
      <point x="428" y="52" type="curve" smooth="yes"/>
      <point x="423" y="52"/>
      <point x="421" y="47"/>
      <point x="415" y="41" type="curve" smooth="yes"/>
      <point x="404" y="30"/>
      <point x="388" y="21"/>
      <point x="370" y="21" type="curve" smooth="yes"/>
      <point x="337" y="21"/>
      <point x="320" y="41"/>
      <point x="321" y="74" type="curve" smooth="yes"/>
      <point x="327" y="325" type="line" smooth="yes"/>
      <point x="328" y="377"/>
      <point x="292" y="415"/>
      <point x="244" y="415" type="curve" smooth="yes"/>
      <point x="203" y="415"/>
      <point x="139" y="385"/>
      <point x="92" y="344" type="curve" smooth="yes"/>
      <point x="67" y="322"/>
      <point x="51" y="295"/>
      <point x="51" y="274" type="curve" smooth="yes"/>
      <point x="51" y="269"/>
      <point x="54" y="265"/>
      <point x="58" y="265" type="curve" smooth="yes"/>
      <point x="71" y="265"/>
      <point x="102" y="290"/>
      <point x="102" y="300" type="curve" smooth="yes"/>
      <point x="102" y="305"/>
      <point x="100" y="313"/>
      <point x="100" y="318" type="curve" smooth="yes"/>
      <point x="100" y="341"/>
      <point x="106" y="355"/>
      <point x="118" y="365" type="curve" smooth="yes"/>
      <point x="135" y="378"/>
      <point x="163" y="384"/>
      <point x="197" y="384" type="curve" smooth="yes"/>
      <point x="254" y="384"/>
      <point x="287" y="352"/>
      <point x="286" y="311" type="curve" smooth="yes"/>
      <point x="283" y="240" type="line" smooth="yes"/>
      <point x="282" y="213"/>
      <point x="281" y="211"/>
      <point x="253" y="200" type="curve" smooth="yes"/>
      <point x="124" y="155" type="line" smooth="yes"/>
      <point x="71" y="135"/>
      <point x="47" y="114"/>
      <point x="47" y="72" type="curve" smooth="yes"/>
      <point x="47" y="34"/>
      <point x="98" y="-15"/>
    </contour>
    <contour>
      <point x="168" y="15" type="curve" smooth="yes"/>
      <point x="125" y="15"/>
      <point x="91" y="44"/>
      <point x="91" y="89" type="curve" smooth="yes"/>
      <point x="91" y="120"/>
      <point x="118" y="154"/>
      <point x="238" y="188" type="curve" smooth="yes"/>
      <point x="256" y="193"/>
      <point x="265" y="193"/>
      <point x="270" y="193" type="curve" smooth="yes"/>
      <point x="282" y="193"/>
      <point x="285" y="186"/>
      <point x="284" y="167" type="curve" smooth="yes"/>
      <point x="282" y="97" type="line" smooth="yes"/>
      <point x="281" y="66"/>
      <point x="272" y="53"/>
      <point x="261" y="44" type="curve" smooth="yes"/>
      <point x="238" y="25"/>
      <point x="209" y="15"/>
    </contour>
  </outline>
</glyph>
<glyph name="c" format="1">
  <advance width="478"/>
  <unicode hex="0063"/>
  <outline>
    <contour>
      <point x="253" y="-15" type="curve" smooth="yes"/>
      <point x="324" y="-15"/>
      <point x="378" y="8"/>
      <point x="416" y="51" type="curve" smooth="yes"/>
      <point x="428" y="65"/>
      <point x="436" y="82"/>
      <point x="436" y="92" type="curve" smooth="yes"/>
      <point x="437" y="97"/>
      <point x="436" y="99"/>
      <point x="432" y="99" type="curve" smooth="yes"/>
      <point x="430" y="99"/>
      <point x="428" y="96"/>
      <point x="425" y="93" type="curve" smooth="yes"/>
      <point x="380" y="57"/>
      <point x="343" y="41"/>
      <point x="287" y="41" type="curve" smooth="yes"/>
      <point x="172" y="41"/>
      <point x="83" y="118"/>
      <point x="83" y="212" type="curve" smooth="yes"/>
      <point x="83" y="325"/>
      <point x="144" y="402"/>
      <point x="231" y="402" type="curve" smooth="yes"/>
      <point x="268" y="402"/>
      <point x="312" y="370"/>
      <point x="347" y="340" type="curve" smooth="yes"/>
      <point x="368" y="328"/>
      <point x="382" y="319"/>
      <point x="394" y="319" type="curve" smooth="yes"/>
      <point x="412" y="319"/>
      <point x="439" y="343"/>
      <point x="439" y="361" type="curve" smooth="yes"/>
      <point x="439" y="368"/>
      <point x="434" y="374"/>
      <point x="425" y="380" type="curve" smooth="yes"/>
      <point x="388" y="403"/>
      <point x="337" y="415"/>
      <point x="287" y="415" type="curve" smooth="yes"/>
      <point x="134" y="415"/>
      <point x="44" y="313"/>
      <point x="44" y="180" type="curve" smooth="yes"/>
      <point x="44" y="69"/>
      <point x="135" y="-15"/>
    </contour>
  </outline>
</glyph>
<glyph name="d" format="1">
  <advance width="577"/>
  <unicode hex="0064"/>
  <outline>
    <contour>
      <point x="453" y="-19" type="curve" smooth="yes"/>
      <point x="458" y="-19"/>
      <point x="463" y="-16"/>
      <point x="473" y="-10" type="curve" smooth="yes"/>
      <point x="504" y="7"/>
      <point x="533" y="17"/>
      <point x="559" y="21" type="curve" smooth="yes"/>
      <point x="567" y="21"/>
      <point x="574" y="24"/>
      <point x="574" y="28" type="curve" smooth="yes"/>
      <point x="574" y="32"/>
      <point x="569" y="32"/>
      <point x="556" y="31" type="curve" smooth="yes"/>
      <point x="538" y="30"/>
      <point x="519" y="31"/>
      <point x="512" y="31" type="curve" smooth="yes"/>
      <point x="496" y="31"/>
      <point x="491" y="42"/>
      <point x="491" y="74" type="curve" smooth="yes"/>
      <point x="491" y="511" type="line" smooth="yes"/>
      <point x="491" y="601"/>
      <point x="496" y="635"/>
      <point x="496" y="647" type="curve"/>
      <point x="495" y="651"/>
      <point x="494" y="653"/>
      <point x="491" y="653" type="curve" smooth="yes"/>
      <point x="488" y="653"/>
      <point x="484" y="652"/>
      <point x="480" y="650" type="curve" smooth="yes"/>
      <point x="459" y="642"/>
      <point x="431" y="635"/>
      <point x="390" y="619" type="curve" smooth="yes"/>
      <point x="385" y="617"/>
      <point x="383" y="615"/>
      <point x="383" y="614" type="curve" smooth="yes"/>
      <point x="383" y="612"/>
      <point x="386" y="610"/>
      <point x="393" y="609" type="curve" smooth="yes"/>
      <point x="436" y="606"/>
      <point x="451" y="601"/>
      <point x="451" y="569" type="curve" smooth="yes"/>
      <point x="451" y="408" type="line" smooth="yes"/>
      <point x="451" y="394"/>
      <point x="446" y="390"/>
      <point x="442" y="390" type="curve" smooth="yes"/>
      <point x="438" y="390"/>
      <point x="433" y="389"/>
      <point x="425" y="393" type="curve" smooth="yes"/>
      <point x="403" y="404"/>
      <point x="362" y="414"/>
      <point x="324" y="414" type="curve" smooth="yes"/>
      <point x="154" y="414"/>
      <point x="44" y="322"/>
      <point x="44" y="190" type="curve" smooth="yes"/>
      <point x="44" y="89"/>
      <point x="135" y="-14"/>
      <point x="282" y="-14" type="curve" smooth="yes"/>
      <point x="366" y="-14"/>
      <point x="425" y="37"/>
      <point x="449" y="69" type="curve"/>
      <point x="449" y="51" type="line" smooth="yes"/>
      <point x="449" y="34"/>
      <point x="442" y="4"/>
      <point x="442" y="-9" type="curve" smooth="yes"/>
      <point x="442" y="-12"/>
      <point x="450" y="-19"/>
    </contour>
    <contour>
      <point x="308" y="10" type="curve" smooth="yes"/>
      <point x="243" y="10"/>
      <point x="86" y="37"/>
      <point x="86" y="209" type="curve" smooth="yes"/>
      <point x="86" y="360"/>
      <point x="200" y="402"/>
      <point x="268" y="402" type="curve" smooth="yes"/>
      <point x="415" y="402"/>
      <point x="451" y="374"/>
      <point x="451" y="308" type="curve" smooth="yes"/>
      <point x="449" y="66" type="line"/>
      <point x="412" y="34"/>
      <point x="360" y="10"/>
    </contour>
  </outline>
</glyph>
<glyph name="f" format="1">
  <advance width="361"/>
  <unicode hex="0066"/>
  <outline>
    <contour>
      <point x="51" y="-4" type="curve" smooth="yes"/>
      <point x="92" y="-4"/>
      <point x="94" y="1"/>
      <point x="130" y="1" type="curve" smooth="yes"/>
      <point x="166" y="1"/>
      <point x="185" y="-4"/>
      <point x="226" y="-4" type="curve" smooth="yes"/>
      <point x="240" y="-4"/>
      <point x="247" y="-3"/>
      <point x="247" y="0" type="curve" smooth="yes"/>
      <point x="247" y="5"/>
      <point x="236" y="6"/>
      <point x="218" y="6" type="curve" smooth="yes"/>
      <point x="150" y="12"/>
      <point x="145" y="15"/>
      <point x="145" y="37" type="curve" smooth="yes"/>
      <point x="145" y="380" type="line" smooth="yes"/>
      <point x="145" y="382"/>
      <point x="149" y="384"/>
      <point x="169" y="384" type="curve" smooth="yes"/>
      <point x="304" y="384" type="line" smooth="yes"/>
      <point x="307" y="384"/>
      <point x="312" y="385"/>
      <point x="315" y="386" type="curve" smooth="yes"/>
      <point x="319" y="389"/>
      <point x="322" y="392"/>
      <point x="322" y="394" type="curve" smooth="yes"/>
      <point x="322" y="396"/>
      <point x="315" y="400"/>
      <point x="306" y="400" type="curve" smooth="yes"/>
      <point x="159" y="400" type="line" smooth="yes"/>
      <point x="151" y="400"/>
      <point x="145" y="400"/>
      <point x="145" y="410" type="curve" smooth="yes"/>
      <point x="145" y="491" type="line" smooth="yes"/>
      <point x="145" y="579"/>
      <point x="209" y="632"/>
      <point x="280" y="632" type="curve" smooth="yes"/>
      <point x="335" y="632"/>
      <point x="366" y="616"/>
      <point x="398" y="579" type="curve" smooth="yes"/>
      <point x="412" y="565"/>
      <point x="430" y="554"/>
      <point x="446" y="554" type="curve" smooth="yes"/>
      <point x="470" y="554"/>
      <point x="491" y="566"/>
      <point x="491" y="593" type="curve" smooth="yes"/>
      <point x="491" y="626"/>
      <point x="438" y="654"/>
      <point x="355" y="654" type="curve" smooth="yes"/>
      <point x="227" y="654"/>
      <point x="106" y="619"/>
      <point x="106" y="433" type="curve" smooth="yes"/>
      <point x="106" y="406" type="line"/>
      <point x="80" y="402"/>
      <point x="64" y="399"/>
      <point x="39" y="396" type="curve" smooth="yes"/>
      <point x="37" y="395"/>
      <point x="30" y="395"/>
      <point x="30" y="393" type="curve" smooth="yes"/>
      <point x="30" y="391"/>
      <point x="43" y="385"/>
      <point x="48" y="384" type="curve"/>
      <point x="74" y="384"/>
      <point x="89" y="384"/>
      <point x="106" y="384" type="curve"/>
      <point x="106" y="37" type="line" smooth="yes"/>
      <point x="106" y="15"/>
      <point x="93" y="12"/>
      <point x="59" y="6" type="curve" smooth="yes"/>
      <point x="42" y="5"/>
      <point x="30" y="5"/>
      <point x="30" y="0" type="curve" smooth="yes"/>
      <point x="30" y="-3"/>
      <point x="37" y="-4"/>
    </contour>
  </outline>
</glyph>
<glyph name="g" format="1">
  <advance width="468"/>
  <unicode hex="0067"/>
  <outline>
    <contour>
      <point x="202" y="-213" type="curve" smooth="yes"/>
      <point x="328" y="-213"/>
      <point x="457" y="-131"/>
      <point x="454" y="-38" type="curve" smooth="yes"/>
      <point x="452" y="15"/>
      <point x="386" y="42"/>
      <point x="244" y="47" type="curve" smooth="yes"/>
      <point x="144" y="51"/>
      <point x="80" y="60"/>
      <point x="80" y="86" type="curve" smooth="yes"/>
      <point x="80" y="98"/>
      <point x="114" y="116"/>
      <point x="149" y="127" type="curve"/>
      <point x="143" y="142" type="line"/>
      <point x="130" y="133"/>
      <point x="131" y="134"/>
      <point x="73" y="104" type="curve" smooth="yes"/>
      <point x="53" y="93"/>
      <point x="42" y="83"/>
      <point x="42" y="72" type="curve" smooth="yes"/>
      <point x="42" y="10"/>
      <point x="83" y="-5"/>
      <point x="226" y="-14" type="curve" smooth="yes"/>
      <point x="368" y="-24"/>
      <point x="416" y="-31"/>
      <point x="418" y="-74" type="curve" smooth="yes"/>
      <point x="420" y="-110"/>
      <point x="393" y="-141"/>
      <point x="354" y="-162" type="curve" smooth="yes"/>
      <point x="324" y="-181"/>
      <point x="277" y="-192"/>
      <point x="218" y="-192" type="curve" smooth="yes"/>
      <point x="130" y="-192"/>
      <point x="56" y="-157"/>
      <point x="56" y="-113" type="curve" smooth="yes"/>
      <point x="56" y="-67"/>
      <point x="86" y="-36"/>
      <point x="160" y="-1" type="curve"/>
      <point x="151" y="11" type="line"/>
      <point x="114" y="-13"/>
      <point x="73" y="-37"/>
      <point x="52" y="-50" type="curve" smooth="yes"/>
      <point x="24" y="-66"/>
      <point x="14" y="-86"/>
      <point x="14" y="-114" type="curve" smooth="yes"/>
      <point x="14" y="-175"/>
      <point x="89" y="-213"/>
    </contour>
    <contour>
      <point x="224" y="116" type="curve" smooth="yes"/>
      <point x="143" y="116"/>
      <point x="84" y="169"/>
      <point x="84" y="268" type="curve" smooth="yes"/>
      <point x="84" y="352"/>
      <point x="144" y="407"/>
      <point x="213" y="407" type="curve" smooth="yes"/>
      <point x="295" y="407"/>
      <point x="352" y="365"/>
      <point x="352" y="275" type="curve" smooth="yes"/>
      <point x="352" y="177"/>
      <point x="300" y="116"/>
    </contour>
    <contour>
      <point x="217" y="106" type="curve" smooth="yes"/>
      <point x="310" y="106"/>
      <point x="388" y="193"/>
      <point x="388" y="295" type="curve" smooth="yes"/>
      <point x="388" y="313"/>
      <point x="392" y="340"/>
      <point x="395" y="355" type="curve" smooth="yes"/>
      <point x="397" y="363"/>
      <point x="408" y="368"/>
      <point x="427" y="368" type="curve" smooth="yes"/>
      <point x="457" y="368" type="line"/>
      <point x="459" y="368"/>
      <point x="462" y="369"/>
      <point x="465" y="370" type="curve" smooth="yes"/>
      <point x="471" y="373"/>
      <point x="476" y="374"/>
      <point x="476" y="379" type="curve" smooth="yes"/>
      <point x="476" y="382"/>
      <point x="469" y="386"/>
      <point x="462" y="386" type="curve" smooth="yes"/>
      <point x="451" y="386"/>
      <point x="420" y="385"/>
      <point x="403" y="385" type="curve" smooth="yes"/>
      <point x="381" y="385"/>
      <point x="364" y="386"/>
      <point x="330" y="395" type="curve" smooth="yes"/>
      <point x="300" y="403"/>
      <point x="272" y="416"/>
      <point x="230" y="416" type="curve" smooth="yes"/>
      <point x="132" y="416"/>
      <point x="42" y="351"/>
      <point x="42" y="258" type="curve" smooth="yes"/>
      <point x="42" y="176"/>
      <point x="129" y="106"/>
    </contour>
  </outline>
</glyph>
<glyph name="h" format="1">
  <advance width="590"/>
  <unicode hex="0068"/>
  <outline>
    <contour>
      <point x="45" y="-3" type="curve" smooth="yes"/>
      <point x="80" y="-3"/>
      <point x="85" y="-2"/>
      <point x="115" y="-2" type="curve" smooth="yes"/>
      <point x="147" y="-2"/>
      <point x="147" y="-3"/>
      <point x="183" y="-3" type="curve" smooth="yes"/>
      <point x="199" y="-3"/>
      <point x="205" y="-2"/>
      <point x="205" y="2" type="curve" smooth="yes"/>
      <point x="205" y="4"/>
      <point x="196" y="6"/>
      <point x="180" y="7" type="curve" smooth="yes"/>
      <point x="157" y="10"/>
      <point x="136" y="13"/>
      <point x="136" y="23" type="curve" smooth="yes"/>
      <point x="136" y="293" type="line" smooth="yes"/>
      <point x="136" y="326"/>
      <point x="143" y="339"/>
      <point x="162" y="353" type="curve" smooth="yes"/>
      <point x="197" y="371"/>
      <point x="255" y="381"/>
      <point x="312" y="381" type="curve" smooth="yes"/>
      <point x="386" y="381"/>
      <point x="452" y="340"/>
      <point x="452" y="288" type="curve" smooth="yes"/>
      <point x="452" y="22" type="line" smooth="yes"/>
      <point x="452" y="12"/>
      <point x="428" y="9"/>
      <point x="406" y="7" type="curve" smooth="yes"/>
      <point x="388" y="6"/>
      <point x="381" y="4"/>
      <point x="381" y="2" type="curve" smooth="yes"/>
      <point x="381" y="-2"/>
      <point x="389" y="-3"/>
      <point x="402" y="-3" type="curve" smooth="yes"/>
      <point x="437" y="-3"/>
      <point x="441" y="-2"/>
      <point x="472" y="-2" type="curve" smooth="yes"/>
      <point x="502" y="-2"/>
      <point x="505" y="-3"/>
      <point x="540" y="-3" type="curve" smooth="yes"/>
      <point x="555" y="-3"/>
      <point x="561" y="-2"/>
      <point x="561" y="2" type="curve" smooth="yes"/>
      <point x="561" y="5"/>
      <point x="552" y="6"/>
      <point x="537" y="7" type="curve" smooth="yes"/>
      <point x="515" y="10"/>
      <point x="492" y="12"/>
      <point x="492" y="22" type="curve" smooth="yes"/>
      <point x="492" y="277" type="line" smooth="yes"/>
      <point x="492" y="355"/>
      <point x="429" y="414"/>
      <point x="345" y="414" type="curve" smooth="yes"/>
      <point x="255" y="414"/>
      <point x="178" y="365"/>
      <point x="129" y="340" type="curve"/>
      <point x="145" y="347" type="line"/>
      <point x="138" y="359"/>
      <point x="136" y="364"/>
      <point x="136" y="388" type="curve" smooth="yes"/>
      <point x="136" y="511" type="line" smooth="yes"/>
      <point x="136" y="618"/>
      <point x="145" y="635"/>
      <point x="145" y="647" type="curve" smooth="yes"/>
      <point x="145" y="651"/>
      <point x="142" y="654"/>
      <point x="138" y="654" type="curve" smooth="yes"/>
      <point x="136" y="654"/>
      <point x="134" y="653"/>
      <point x="131" y="651" type="curve" smooth="yes"/>
      <point x="107" y="636"/>
      <point x="67" y="622"/>
      <point x="45" y="618" type="curve" smooth="yes"/>
      <point x="39" y="618"/>
      <point x="37" y="616"/>
      <point x="37" y="614" type="curve" smooth="yes"/>
      <point x="37" y="611"/>
      <point x="40" y="609"/>
      <point x="47" y="609" type="curve" smooth="yes"/>
      <point x="85" y="606"/>
      <point x="96" y="594"/>
      <point x="96" y="581" type="curve" smooth="yes"/>
      <point x="96" y="23" type="line" smooth="yes"/>
      <point x="97" y="13"/>
      <point x="71" y="10"/>
      <point x="49" y="7" type="curve" smooth="yes"/>
      <point x="30" y="6"/>
      <point x="24" y="4"/>
      <point x="24" y="2" type="curve" smooth="yes"/>
      <point x="24" y="-2"/>
      <point x="32" y="-3"/>
    </contour>
  </outline>
</glyph>
<glyph name="j" format="1">
  <advance width="211"/>
  <unicode hex="006A"/>
  <outline>
    <contour>
      <point x="-8" y="-206" type="curve" smooth="yes"/>
      <point x="34" y="-206"/>
      <point x="84" y="-139"/>
      <point x="105" y="-71" type="curve" smooth="yes"/>
      <point x="128" y="9"/>
      <point x="129" y="110"/>
      <point x="129" y="172" type="curve" smooth="yes"/>
      <point x="129" y="275" type="line" smooth="yes"/>
      <point x="129" y="320"/>
      <point x="132" y="388"/>
      <point x="136" y="429" type="curve"/>
      <point x="136" y="432"/>
      <point x="133" y="434"/>
      <point x="129" y="434" type="curve" smooth="yes"/>
      <point x="127" y="434"/>
      <point x="122" y="428"/>
      <point x="118" y="423" type="curve" smooth="yes"/>
      <point x="105" y="408"/>
      <point x="93" y="385"/>
      <point x="37" y="368" type="curve" smooth="yes"/>
      <point x="33" y="367"/>
      <point x="31" y="364"/>
      <point x="31" y="362" type="curve" smooth="yes"/>
      <point x="31" y="360"/>
      <point x="34" y="357"/>
      <point x="40" y="357" type="curve" smooth="yes"/>
      <point x="76" y="356"/>
      <point x="89" y="331"/>
      <point x="89" y="304" type="curve" smooth="yes"/>
      <point x="89" y="109" type="line" smooth="yes"/>
      <point x="89" y="40"/>
      <point x="86" y="-98"/>
      <point x="57" y="-159" type="curve" smooth="yes"/>
      <point x="38" y="-199"/>
      <point x="15" y="-150"/>
      <point x="-22" y="-160" type="curve"/>
      <point x="-28" y="-161"/>
      <point x="-43" y="-176"/>
      <point x="-43" y="-189" type="curve" smooth="yes"/>
      <point x="-43" y="-200"/>
      <point x="-20" y="-206"/>
    </contour>
    <contour>
      <point x="105" y="529" type="curve" smooth="yes"/>
      <point x="128" y="529"/>
      <point x="144" y="545"/>
      <point x="144" y="566" type="curve" smooth="yes"/>
      <point x="144" y="589"/>
      <point x="128" y="605"/>
      <point x="105" y="605" type="curve" smooth="yes"/>
      <point x="84" y="605"/>
      <point x="68" y="589"/>
      <point x="68" y="566" type="curve" smooth="yes"/>
      <point x="68" y="545"/>
      <point x="84" y="529"/>
    </contour>
  </outline>
</glyph>
<glyph name="k" format="1">
  <advance width="550"/>
  <unicode hex="006B"/>
  <outline>
    <contour>
      <point x="49" y="-3" type="curve" smooth="yes"/>
      <point x="85" y="-3"/>
      <point x="89" y="2"/>
      <point x="121" y="2" type="curve" smooth="yes"/>
      <point x="153" y="2"/>
      <point x="150" y="-3"/>
      <point x="186" y="-3" type="curve" smooth="yes"/>
      <point x="191" y="-3"/>
      <point x="211" y="-3"/>
      <point x="211" y="2" type="curve" smooth="yes"/>
      <point x="211" y="5"/>
      <point x="196" y="7"/>
      <point x="182" y="8" type="curve" smooth="yes"/>
      <point x="152" y="10"/>
      <point x="138" y="11"/>
      <point x="138" y="40" type="curve" smooth="yes"/>
      <point x="137" y="88"/>
      <point x="137" y="112"/>
      <point x="137" y="135" type="curve" smooth="yes"/>
      <point x="137" y="158"/>
      <point x="137" y="180"/>
      <point x="138" y="199" type="curve"/>
      <point x="138" y="204"/>
      <point x="141" y="206"/>
      <point x="146" y="206" type="curve" smooth="yes"/>
      <point x="151" y="206"/>
      <point x="154" y="203"/>
      <point x="160" y="199" type="curve" smooth="yes"/>
      <point x="395" y="38" type="line"/>
      <point x="401" y="32"/>
      <point x="406" y="27"/>
      <point x="406" y="23" type="curve" smooth="yes"/>
      <point x="406" y="15"/>
      <point x="387" y="10"/>
      <point x="343" y="9" type="curve" smooth="yes"/>
      <point x="332" y="9"/>
      <point x="323" y="5"/>
      <point x="323" y="3" type="curve" smooth="yes"/>
      <point x="323" y="1"/>
      <point x="327" y="0"/>
      <point x="342" y="0" type="curve" smooth="yes"/>
      <point x="417" y="0"/>
      <point x="481" y="-3"/>
      <point x="538" y="-3" type="curve" smooth="yes"/>
      <point x="551" y="-3"/>
      <point x="560" y="-2"/>
      <point x="560" y="2" type="curve" smooth="yes"/>
      <point x="560" y="4"/>
      <point x="550" y="6"/>
      <point x="537" y="6" type="curve" smooth="yes"/>
      <point x="514" y="7"/>
      <point x="494" y="18"/>
      <point x="455" y="45" type="curve" smooth="yes"/>
      <point x="408" y="76"/>
      <point x="273" y="174"/>
      <point x="200" y="216" type="curve" smooth="yes"/>
      <point x="198" y="218"/>
      <point x="196" y="221"/>
      <point x="196" y="223" type="curve" smooth="yes"/>
      <point x="196" y="226"/>
      <point x="199" y="230"/>
      <point x="204" y="233" type="curve" smooth="yes"/>
      <point x="263" y="277"/>
      <point x="379" y="344"/>
      <point x="406" y="361" type="curve" smooth="yes"/>
      <point x="434" y="378"/>
      <point x="456" y="386"/>
      <point x="488" y="391" type="curve" smooth="yes"/>
      <point x="505" y="394"/>
      <point x="520" y="396"/>
      <point x="520" y="399" type="curve" smooth="yes"/>
      <point x="520" y="404"/>
      <point x="514" y="404"/>
      <point x="503" y="404" type="curve" smooth="yes"/>
      <point x="478" y="404"/>
      <point x="433" y="400"/>
      <point x="396" y="400" type="curve" smooth="yes"/>
      <point x="339" y="400" type="line" smooth="yes"/>
      <point x="323" y="400"/>
      <point x="313" y="398"/>
      <point x="313" y="395" type="curve" smooth="yes"/>
      <point x="313" y="394"/>
      <point x="317" y="392"/>
      <point x="328" y="392" type="curve" smooth="yes"/>
      <point x="363" y="391"/>
      <point x="378" y="384"/>
      <point x="378" y="372" type="curve" smooth="yes"/>
      <point x="378" y="367"/>
      <point x="375" y="362"/>
      <point x="367" y="357" type="curve" smooth="yes"/>
      <point x="321" y="319"/>
      <point x="264" y="278"/>
      <point x="196" y="237" type="curve" smooth="yes"/>
      <point x="175" y="224"/>
      <point x="157" y="217"/>
      <point x="145" y="217" type="curve" smooth="yes"/>
      <point x="141" y="217"/>
      <point x="138" y="220"/>
      <point x="138" y="226" type="curve" smooth="yes"/>
      <point x="138" y="511" type="line" smooth="yes"/>
      <point x="138" y="596"/>
      <point x="149" y="631"/>
      <point x="149" y="645" type="curve" smooth="yes"/>
      <point x="149" y="651"/>
      <point x="148" y="654"/>
      <point x="144" y="654" type="curve" smooth="yes"/>
      <point x="141" y="654"/>
      <point x="132" y="651"/>
      <point x="126" y="648" type="curve" smooth="yes"/>
      <point x="106" y="631"/>
      <point x="67" y="624"/>
      <point x="49" y="619" type="curve" smooth="yes"/>
      <point x="44" y="617"/>
      <point x="39" y="617"/>
      <point x="37" y="613" type="curve" smooth="yes"/>
      <point x="37" y="609"/>
      <point x="41" y="609"/>
      <point x="47" y="609" type="curve" smooth="yes"/>
      <point x="100" y="606"/>
      <point x="97" y="595"/>
      <point x="97" y="556" type="curve" smooth="yes"/>
      <point x="97" y="34" type="line" smooth="yes"/>
      <point x="97" y="14"/>
      <point x="85" y="10"/>
      <point x="50" y="8" type="curve" smooth="yes"/>
      <point x="37" y="7"/>
      <point x="24" y="5"/>
      <point x="24" y="2" type="curve" smooth="yes"/>
      <point x="24" y="-2"/>
      <point x="33" y="-3"/>
    </contour>
  </outline>
</glyph>
<glyph name="l" format="1">
  <advance width="231"/>
  <unicode hex="006C"/>
  <outline>
    <contour>
      <point x="41" y="-3" type="curve" smooth="yes"/>
      <point x="74" y="-3"/>
      <point x="86" y="2"/>
      <point x="116" y="2" type="curve" smooth="yes"/>
      <point x="146" y="2"/>
      <point x="157" y="-3"/>
      <point x="190" y="-3" type="curve" smooth="yes"/>
      <point x="196" y="-3"/>
      <point x="207" y="-3"/>
      <point x="207" y="2" type="curve" smooth="yes"/>
      <point x="207" y="5"/>
      <point x="195" y="8"/>
      <point x="184" y="10" type="curve"/>
      <point x="158" y="12"/>
      <point x="136" y="15"/>
      <point x="136" y="34" type="curve" smooth="yes"/>
      <point x="136" y="511" type="line" smooth="yes"/>
      <point x="136" y="601"/>
      <point x="143" y="635"/>
      <point x="143" y="647" type="curve" smooth="yes"/>
      <point x="143" y="650"/>
      <point x="141" y="654"/>
      <point x="138" y="654" type="curve" smooth="yes"/>
      <point x="136" y="654"/>
      <point x="135" y="653"/>
      <point x="133" y="652" type="curve" smooth="yes"/>
      <point x="109" y="625"/>
      <point x="83" y="613"/>
      <point x="49" y="609" type="curve" smooth="yes"/>
      <point x="39" y="608"/>
      <point x="36" y="605"/>
      <point x="36" y="602" type="curve" smooth="yes"/>
      <point x="36" y="598"/>
      <point x="39" y="597"/>
      <point x="52" y="594" type="curve" smooth="yes"/>
      <point x="85" y="589"/>
      <point x="96" y="575"/>
      <point x="96" y="545" type="curve" smooth="yes"/>
      <point x="96" y="33" type="line" smooth="yes"/>
      <point x="96" y="13"/>
      <point x="67" y="11"/>
      <point x="47" y="9" type="curve"/>
      <point x="36" y="7"/>
      <point x="24" y="5"/>
      <point x="24" y="2" type="curve" smooth="yes"/>
      <point x="24" y="-3"/>
      <point x="35" y="-3"/>
    </contour>
  </outline>
</glyph>
<glyph name="n" format="1">
  <advance width="604"/>
  <unicode hex="006E"/>
  <outline>
    <contour>
      <point x="49" y="-3" type="curve" smooth="yes"/>
      <point x="85" y="-3"/>
      <point x="90" y="-2"/>
      <point x="123" y="-2" type="curve" smooth="yes"/>
      <point x="155" y="-2"/>
      <point x="160" y="-3"/>
      <point x="196" y="-3" type="curve" smooth="yes"/>
      <point x="208" y="-3"/>
      <point x="215" y="-2"/>
      <point x="215" y="1" type="curve" smooth="yes"/>
      <point x="215" y="3"/>
      <point x="207" y="4"/>
      <point x="189" y="5" type="curve" smooth="yes"/>
      <point x="168" y="7"/>
      <point x="142" y="9"/>
      <point x="142" y="17" type="curve" smooth="yes"/>
      <point x="142" y="318" type="line" smooth="yes"/>
      <point x="142" y="327"/>
      <point x="147" y="339"/>
      <point x="154" y="345" type="curve" smooth="yes"/>
      <point x="192" y="374"/>
      <point x="251" y="391"/>
      <point x="325" y="391" type="curve" smooth="yes"/>
      <point x="408" y="391"/>
      <point x="463" y="349"/>
      <point x="463" y="284" type="curve" smooth="yes"/>
      <point x="463" y="17" type="line" smooth="yes"/>
      <point x="463" y="9"/>
      <point x="438" y="7"/>
      <point x="416" y="5" type="curve" smooth="yes"/>
      <point x="402" y="4"/>
      <point x="391" y="3"/>
      <point x="391" y="0" type="curve" smooth="yes"/>
      <point x="391" y="-2"/>
      <point x="401" y="-3"/>
      <point x="409" y="-3" type="curve" smooth="yes"/>
      <point x="445" y="-3"/>
      <point x="451" y="-2"/>
      <point x="483" y="-2" type="curve" smooth="yes"/>
      <point x="516" y="-2"/>
      <point x="520" y="-3"/>
      <point x="557" y="-3" type="curve" smooth="yes"/>
      <point x="566" y="-3"/>
      <point x="575" y="-2"/>
      <point x="575" y="0" type="curve" smooth="yes"/>
      <point x="575" y="3"/>
      <point x="563" y="4"/>
      <point x="550" y="5" type="curve"/>
      <point x="528" y="7"/>
      <point x="503" y="9"/>
      <point x="503" y="17" type="curve" smooth="yes"/>
      <point x="503" y="287" type="line" smooth="yes"/>
      <point x="503" y="358"/>
      <point x="441" y="413"/>
      <point x="356" y="413" type="curve" smooth="yes"/>
      <point x="274" y="413"/>
      <point x="208" y="393"/>
      <point x="147" y="352" type="curve"/>
      <point x="146" y="360"/>
      <point x="145" y="365"/>
      <point x="145" y="371" type="curve" smooth="yes"/>
      <point x="145" y="389"/>
      <point x="150" y="412"/>
      <point x="150" y="420" type="curve" smooth="yes"/>
      <point x="150" y="424"/>
      <point x="147" y="428"/>
      <point x="144" y="428" type="curve" smooth="yes"/>
      <point x="142" y="428"/>
      <point x="140" y="427"/>
      <point x="138" y="424" type="curve" smooth="yes"/>
      <point x="115" y="404"/>
      <point x="87" y="385"/>
      <point x="52" y="374" type="curve" smooth="yes"/>
      <point x="49" y="372"/>
      <point x="46" y="371"/>
      <point x="46" y="369" type="curve" smooth="yes"/>
      <point x="46" y="368"/>
      <point x="48" y="365"/>
      <point x="53" y="364" type="curve" smooth="yes"/>
      <point x="89" y="357"/>
      <point x="103" y="317"/>
      <point x="103" y="282" type="curve" smooth="yes"/>
      <point x="103" y="17" type="line" smooth="yes"/>
      <point x="103" y="9"/>
      <point x="77" y="7"/>
      <point x="56" y="5" type="curve" smooth="yes"/>
      <point x="39" y="4"/>
      <point x="30" y="4"/>
      <point x="30" y="1" type="curve" smooth="yes"/>
      <point x="30" y="-2"/>
      <point x="38" y="-3"/>
    </contour>
  </outline>
</glyph>
<glyph name="r" format="1">
  <advance width="390"/>
  <unicode hex="0072"/>
  <outline>
    <contour>
      <point x="55" y="-3" type="curve" smooth="yes"/>
      <point x="92" y="-3"/>
      <point x="98" y="2"/>
      <point x="130" y="2" type="curve" smooth="yes"/>
      <point x="160" y="2"/>
      <point x="170" y="-3"/>
      <point x="210" y="-3" type="curve" smooth="yes"/>
      <point x="223" y="-3"/>
      <point x="228" y="-1"/>
      <point x="228" y="1" type="curve" smooth="yes"/>
      <point x="228" y="4"/>
      <point x="218" y="5"/>
      <point x="203" y="6" type="curve" smooth="yes"/>
      <point x="167" y="8"/>
      <point x="145" y="11"/>
      <point x="145" y="24" type="curve" smooth="yes"/>
      <point x="145" y="296" type="line" smooth="yes"/>
      <point x="145" y="354"/>
      <point x="201" y="376"/>
      <point x="250" y="376" type="curve" smooth="yes"/>
      <point x="262" y="376"/>
      <point x="279" y="364"/>
      <point x="294" y="353" type="curve" smooth="yes"/>
      <point x="309" y="342"/>
      <point x="327" y="328"/>
      <point x="336" y="328" type="curve" smooth="yes"/>
      <point x="365" y="328"/>
      <point x="384" y="362"/>
      <point x="384" y="382" type="curve" smooth="yes"/>
      <point x="384" y="400"/>
      <point x="355" y="414"/>
      <point x="315" y="414" type="curve" smooth="yes"/>
      <point x="258" y="414"/>
      <point x="195" y="385"/>
      <point x="148" y="346" type="curve"/>
      <point x="147" y="346"/>
      <point x="146" y="347"/>
      <point x="146" y="348" type="curve"/>
      <point x="148" y="380"/>
      <point x="149" y="416"/>
      <point x="149" y="423" type="curve"/>
      <point x="149" y="427"/>
      <point x="148" y="430"/>
      <point x="146" y="430" type="curve" smooth="yes"/>
      <point x="143" y="430"/>
      <point x="137" y="427"/>
      <point x="132" y="420" type="curve" smooth="yes"/>
      <point x="113" y="398"/>
      <point x="82" y="374"/>
      <point x="55" y="368" type="curve" smooth="yes"/>
      <point x="52" y="367"/>
      <point x="49" y="365"/>
      <point x="49" y="363" type="curve" smooth="yes"/>
      <point x="49" y="361"/>
      <point x="54" y="359"/>
      <point x="59" y="359" type="curve" smooth="yes"/>
      <point x="96" y="352"/>
      <point x="105" y="325"/>
      <point x="105" y="298" type="curve" smooth="yes"/>
      <point x="105" y="24" type="line" smooth="yes"/>
      <point x="105" y="11"/>
      <point x="91" y="8"/>
      <point x="63" y="6" type="curve" smooth="yes"/>
      <point x="46" y="5"/>
      <point x="37" y="4"/>
      <point x="37" y="1" type="curve" smooth="yes"/>
      <point x="37" y="-1"/>
      <point x="42" y="-3"/>
    </contour>
  </outline>
</glyph>
<glyph name="t" format="1">
  <advance width="365"/>
  <unicode hex="0074"/>
  <outline>
    <contour>
      <point x="224" y="-14" type="curve" smooth="yes"/>
      <point x="292" y="-14"/>
      <point x="355" y="41"/>
      <point x="355" y="49" type="curve" smooth="yes"/>
      <point x="355" y="52"/>
      <point x="355" y="54"/>
      <point x="351" y="54" type="curve" smooth="yes"/>
      <point x="349" y="54"/>
      <point x="346" y="52"/>
      <point x="345" y="51" type="curve" smooth="yes"/>
      <point x="303" y="22"/>
      <point x="274" y="14"/>
      <point x="242" y="14" type="curve" smooth="yes"/>
      <point x="180" y="14"/>
      <point x="147" y="51"/>
      <point x="147" y="111" type="curve" smooth="yes"/>
      <point x="147" y="381" type="line" smooth="yes"/>
      <point x="147" y="388"/>
      <point x="153" y="388"/>
      <point x="189" y="388" type="curve" smooth="yes"/>
      <point x="340" y="388" type="line" smooth="yes"/>
      <point x="347" y="388"/>
      <point x="353" y="391"/>
      <point x="353" y="394" type="curve" smooth="yes"/>
      <point x="353" y="397"/>
      <point x="347" y="400"/>
      <point x="340" y="400" type="curve" smooth="yes"/>
      <point x="173" y="400" type="line" smooth="yes"/>
      <point x="154" y="400"/>
      <point x="144" y="404"/>
      <point x="146" y="419" type="curve" smooth="yes"/>
      <point x="152" y="464" type="line" smooth="yes"/>
      <point x="153" y="473"/>
      <point x="152" y="475"/>
      <point x="145" y="475" type="curve" smooth="yes"/>
      <point x="143" y="475"/>
      <point x="139" y="471"/>
      <point x="136" y="464" type="curve" smooth="yes"/>
      <point x="116" y="428"/>
      <point x="94" y="411"/>
      <point x="59" y="406" type="curve" smooth="yes"/>
      <point x="48" y="405"/>
      <point x="44" y="399"/>
      <point x="44" y="395" type="curve" smooth="yes"/>
      <point x="44" y="389"/>
      <point x="50" y="388"/>
      <point x="59" y="388" type="curve" smooth="yes"/>
      <point x="67" y="388" type="line"/>
      <point x="102" y="388"/>
      <point x="107" y="385"/>
      <point x="107" y="372" type="curve" smooth="yes"/>
      <point x="107" y="108" type="line" smooth="yes"/>
      <point x="107" y="27"/>
      <point x="147" y="-14"/>
    </contour>
  </outline>
</glyph>
<glyph name="u" format="1">
  <advance width="597"/>
  <unicode hex="0075"/>
  <outline>
    <contour>
      <point x="457" y="-19" type="curve" smooth="yes"/>
      <point x="463" y="-19"/>
      <point x="471" y="-15"/>
      <point x="474" y="-13" type="curve"/>
      <point x="498" y="-1"/>
      <point x="529" y="15"/>
      <point x="572" y="23" type="curve" smooth="yes"/>
      <point x="579" y="24"/>
      <point x="584" y="24"/>
      <point x="584" y="27" type="curve" smooth="yes"/>
      <point x="584" y="30"/>
      <point x="576" y="30"/>
      <point x="568" y="30" type="curve" smooth="yes"/>
      <point x="558" y="30"/>
      <point x="530" y="29"/>
      <point x="519" y="29" type="curve" smooth="yes"/>
      <point x="505" y="29"/>
      <point x="500" y="42"/>
      <point x="500" y="71" type="curve" smooth="yes"/>
      <point x="500" y="326" type="line" smooth="yes"/>
      <point x="500" y="342"/>
      <point x="505" y="388"/>
      <point x="508" y="395" type="curve" smooth="yes"/>
      <point x="509" y="399"/>
      <point x="510" y="402"/>
      <point x="510" y="404" type="curve" smooth="yes"/>
      <point x="510" y="411"/>
      <point x="503" y="415"/>
      <point x="496" y="415" type="curve" smooth="yes"/>
      <point x="493" y="415"/>
      <point x="489" y="414"/>
      <point x="486" y="413" type="curve"/>
      <point x="454" y="403"/>
      <point x="431" y="398"/>
      <point x="383" y="398" type="curve" smooth="yes"/>
      <point x="374" y="398"/>
      <point x="366" y="397"/>
      <point x="366" y="394" type="curve" smooth="yes"/>
      <point x="366" y="390"/>
      <point x="376" y="389"/>
      <point x="389" y="389" type="curve" smooth="yes"/>
      <point x="445" y="389"/>
      <point x="461" y="385"/>
      <point x="461" y="352" type="curve" smooth="yes"/>
      <point x="461" y="119" type="line" smooth="yes"/>
      <point x="461" y="93"/>
      <point x="447" y="71"/>
      <point x="398" y="51" type="curve" smooth="yes"/>
      <point x="367" y="40"/>
      <point x="325" y="33"/>
      <point x="267" y="33" type="curve" smooth="yes"/>
      <point x="203" y="33"/>
      <point x="141" y="72"/>
      <point x="141" y="128" type="curve" smooth="yes"/>
      <point x="141" y="323" type="line" smooth="yes"/>
      <point x="141" y="353"/>
      <point x="143" y="369"/>
      <point x="148" y="400" type="curve" smooth="yes"/>
      <point x="150" y="411"/>
      <point x="143" y="414"/>
      <point x="136" y="414" type="curve" smooth="yes"/>
      <point x="133" y="414"/>
      <point x="132" y="414"/>
      <point x="129" y="413" type="curve" smooth="yes"/>
      <point x="98" y="404"/>
      <point x="84" y="400"/>
      <point x="50" y="399" type="curve" smooth="yes"/>
      <point x="42" y="399"/>
      <point x="37" y="398"/>
      <point x="37" y="395" type="curve" smooth="yes"/>
      <point x="37" y="392"/>
      <point x="43" y="390"/>
      <point x="51" y="389" type="curve"/>
      <point x="94" y="385"/>
      <point x="101" y="374"/>
      <point x="101" y="339" type="curve" smooth="yes"/>
      <point x="101" y="105" type="line" smooth="yes"/>
      <point x="101" y="27"/>
      <point x="163" y="-14"/>
      <point x="246" y="-14" type="curve" smooth="yes"/>
      <point x="325" y="-14"/>
      <point x="390" y="11"/>
      <point x="457" y="75" type="curve"/>
      <point x="457" y="55"/>
      <point x="457" y="53"/>
      <point x="457" y="51" type="curve" smooth="yes"/>
      <point x="457" y="34"/>
      <point x="451" y="2"/>
      <point x="451" y="-11" type="curve" smooth="yes"/>
      <point x="451" y="-16"/>
      <point x="453" y="-19"/>
    </contour>
  </outline>
</glyph>
<glyph name="v" format="1">
  <advance width="522"/>
  <unicode hex="0076"/>
  <outline>
    <contour>
      <point x="248" y="-21" type="curve"/>
      <point x="267" y="-21" type="line"/>
      <point x="429" y="331" type="line"/>
      <point x="452" y="379"/>
      <point x="477" y="393"/>
      <point x="500" y="396" type="curve" smooth="yes"/>
      <point x="519" y="399"/>
      <point x="529" y="401"/>
      <point x="529" y="402" type="curve" smooth="yes"/>
      <point x="529" y="405"/>
      <point x="517" y="405"/>
      <point x="504" y="405" type="curve" smooth="yes"/>
      <point x="481" y="405"/>
      <point x="475" y="404"/>
      <point x="433" y="404" type="curve" smooth="yes"/>
      <point x="390" y="404"/>
      <point x="380" y="405"/>
      <point x="362" y="405" type="curve" smooth="yes"/>
      <point x="351" y="405"/>
      <point x="338" y="405"/>
      <point x="338" y="402" type="curve" smooth="yes"/>
      <point x="338" y="401"/>
      <point x="345" y="399"/>
      <point x="367" y="398" type="curve" smooth="yes"/>
      <point x="399" y="396"/>
      <point x="416" y="382"/>
      <point x="416" y="356" type="curve" smooth="yes"/>
      <point x="416" y="345"/>
      <point x="411" y="328"/>
      <point x="406" y="315" type="curve" smooth="yes"/>
      <point x="275" y="35" type="line"/>
      <point x="274" y="34"/>
      <point x="273" y="34"/>
      <point x="271" y="35" type="curve"/>
      <point x="140" y="326" type="line" smooth="yes"/>
      <point x="135" y="335"/>
      <point x="132" y="347"/>
      <point x="132" y="356" type="curve" smooth="yes"/>
      <point x="132" y="374"/>
      <point x="144" y="393"/>
      <point x="167" y="396" type="curve" smooth="yes"/>
      <point x="181" y="398"/>
      <point x="196" y="399"/>
      <point x="196" y="402" type="curve" smooth="yes"/>
      <point x="196" y="405"/>
      <point x="183" y="405"/>
      <point x="175" y="405" type="curve" smooth="yes"/>
      <point x="137" y="405"/>
      <point x="135" y="404"/>
      <point x="100" y="404" type="curve" smooth="yes"/>
      <point x="65" y="404"/>
      <point x="65" y="405"/>
      <point x="27" y="405" type="curve" smooth="yes"/>
      <point x="19" y="405"/>
      <point x="6" y="405"/>
      <point x="6" y="402" type="curve" smooth="yes"/>
      <point x="6" y="399"/>
      <point x="15" y="396"/>
      <point x="29" y="394" type="curve" smooth="yes"/>
      <point x="54" y="388"/>
      <point x="67" y="382"/>
      <point x="84" y="343" type="curve" smooth="yes"/>
      <point x="122" y="274"/>
      <point x="168" y="170"/>
      <point x="205" y="85" type="curve" smooth="yes"/>
      <point x="214" y="63"/>
      <point x="223" y="39"/>
      <point x="231" y="17" type="curve" smooth="yes"/>
      <point x="234" y="8"/>
      <point x="244" y="-37"/>
    </contour>
  </outline>
</glyph>
<glyph name="x" format="1">
  <advance width="543"/>
  <unicode hex="0078"/>
  <outline>
    <contour>
      <point x="38" y="-4" type="curve" smooth="yes"/>
      <point x="61" y="-4"/>
      <point x="76" y="1"/>
      <point x="122" y="1" type="curve" smooth="yes"/>
      <point x="143" y="1"/>
      <point x="159" y="-1"/>
      <point x="172" y="-3" type="curve" smooth="yes"/>
      <point x="179" y="-4"/>
      <point x="201" y="-3"/>
      <point x="201" y="0" type="curve" smooth="yes"/>
      <point x="201" y="5"/>
      <point x="185" y="7"/>
      <point x="172" y="7" type="curve"/>
      <point x="144" y="10"/>
      <point x="128" y="11"/>
      <point x="127" y="20" type="curve" smooth="yes"/>
      <point x="127" y="26"/>
      <point x="132" y="33"/>
      <point x="139" y="44" type="curve" smooth="yes"/>
      <point x="268" y="201" type="line" smooth="yes"/>
      <point x="270" y="203"/>
      <point x="274" y="203"/>
      <point x="276" y="201" type="curve" smooth="yes"/>
      <point x="390" y="54" type="line" smooth="yes"/>
      <point x="400" y="43"/>
      <point x="406" y="35"/>
      <point x="406" y="26" type="curve" smooth="yes"/>
      <point x="406" y="19"/>
      <point x="398" y="8"/>
      <point x="361" y="6" type="curve" smooth="yes"/>
      <point x="342" y="5"/>
      <point x="331" y="6"/>
      <point x="331" y="0" type="curve" smooth="yes"/>
      <point x="331" y="-1"/>
      <point x="337" y="-3"/>
      <point x="354" y="-3" type="curve" smooth="yes"/>
      <point x="377" y="-3"/>
      <point x="404" y="-3"/>
      <point x="428" y="-3" type="curve" smooth="yes"/>
      <point x="478" y="-3"/>
      <point x="471" y="-4"/>
      <point x="512" y="-4" type="curve" smooth="yes"/>
      <point x="522" y="-4"/>
      <point x="536" y="-4"/>
      <point x="536" y="-1" type="curve" smooth="yes"/>
      <point x="536" y="3"/>
      <point x="524" y="1"/>
      <point x="511" y="3" type="curve" smooth="yes"/>
      <point x="494" y="5"/>
      <point x="479" y="15"/>
      <point x="462" y="33" type="curve" smooth="yes"/>
      <point x="308" y="225" type="line" smooth="yes"/>
      <point x="304" y="230"/>
      <point x="305" y="235"/>
      <point x="308" y="239" type="curve" smooth="yes"/>
      <point x="403" y="351" type="line" smooth="yes"/>
      <point x="426" y="383"/>
      <point x="445" y="394"/>
      <point x="487" y="394" type="curve"/>
      <point x="500" y="395"/>
      <point x="515" y="397"/>
      <point x="515" y="401" type="curve" smooth="yes"/>
      <point x="515" y="405"/>
      <point x="500" y="405"/>
      <point x="491" y="405" type="curve" smooth="yes"/>
      <point x="470" y="405"/>
      <point x="463" y="403"/>
      <point x="416" y="403" type="curve" smooth="yes"/>
      <point x="396" y="403"/>
      <point x="375" y="404"/>
      <point x="361" y="404" type="curve" smooth="yes"/>
      <point x="355" y="404"/>
      <point x="333" y="405"/>
      <point x="333" y="400" type="curve" smooth="yes"/>
      <point x="333" y="396"/>
      <point x="348" y="396"/>
      <point x="361" y="395" type="curve"/>
      <point x="391" y="394"/>
      <point x="405" y="390"/>
      <point x="406" y="381" type="curve" smooth="yes"/>
      <point x="406" y="376"/>
      <point x="401" y="368"/>
      <point x="392" y="358" type="curve"/>
      <point x="291" y="237" type="line" smooth="yes"/>
      <point x="288" y="233"/>
      <point x="286" y="232"/>
      <point x="280" y="237" type="curve" smooth="yes"/>
      <point x="185" y="349" type="line"/>
      <point x="171" y="364"/>
      <point x="165" y="374"/>
      <point x="165" y="380" type="curve" smooth="yes"/>
      <point x="165" y="389"/>
      <point x="172" y="394"/>
      <point x="196" y="397" type="curve" smooth="yes"/>
      <point x="207" y="398"/>
      <point x="217" y="399"/>
      <point x="217" y="401" type="curve" smooth="yes"/>
      <point x="217" y="404"/>
      <point x="196" y="404"/>
      <point x="190" y="404" type="curve" smooth="yes"/>
      <point x="168" y="404"/>
      <point x="169" y="404"/>
      <point x="146" y="404" type="curve" smooth="yes"/>
      <point x="99" y="404"/>
      <point x="98" y="405"/>
      <point x="61" y="405" type="curve" smooth="yes"/>
      <point x="56" y="405"/>
      <point x="39" y="405"/>
      <point x="39" y="401" type="curve" smooth="yes"/>
      <point x="39" y="398"/>
      <point x="54" y="397"/>
      <point x="65" y="395" type="curve" smooth="yes"/>
      <point x="87" y="391"/>
      <point x="102" y="379"/>
      <point x="127" y="352" type="curve" smooth="yes"/>
      <point x="250" y="215" type="line" smooth="yes"/>
      <point x="257" y="207"/>
      <point x="258" y="203"/>
      <point x="249" y="194" type="curve"/>
      <point x="131" y="58" type="line" smooth="yes"/>
      <point x="94" y="19"/>
      <point x="82" y="12"/>
      <point x="42" y="6" type="curve" smooth="yes"/>
      <point x="28" y="5"/>
      <point x="13" y="3"/>
      <point x="13" y="-1" type="curve" smooth="yes"/>
      <point x="13" y="-4"/>
      <point x="28" y="-4"/>
    </contour>
  </outline>
</glyph>
<glyph name="y" format="1">
  <advance width="521"/>
  <unicode hex="0079"/>
  <outline>
    <contour>
      <point x="128" y="-213" type="curve" smooth="yes"/>
      <point x="155" y="-213"/>
      <point x="169" y="-198"/>
      <point x="183" y="-172" type="curve"/>
      <point x="426" y="331" type="line"/>
      <point x="449" y="380"/>
      <point x="476" y="393"/>
      <point x="498" y="396" type="curve"/>
      <point x="521" y="400"/>
      <point x="527" y="401"/>
      <point x="527" y="402" type="curve" smooth="yes"/>
      <point x="527" y="405"/>
      <point x="517" y="405"/>
      <point x="503" y="405" type="curve" smooth="yes"/>
      <point x="482" y="405"/>
      <point x="473" y="404"/>
      <point x="432" y="404" type="curve" smooth="yes"/>
      <point x="390" y="404"/>
      <point x="376" y="405"/>
      <point x="360" y="405" type="curve" smooth="yes"/>
      <point x="347" y="405"/>
      <point x="335" y="406"/>
      <point x="335" y="404" type="curve" smooth="yes"/>
      <point x="335" y="402"/>
      <point x="335" y="405"/>
      <point x="360" y="403" type="curve" smooth="yes"/>
      <point x="397" y="400"/>
      <point x="413" y="385"/>
      <point x="413" y="358" type="curve" smooth="yes"/>
      <point x="413" y="347"/>
      <point x="409" y="330"/>
      <point x="403" y="315" type="curve"/>
      <point x="269" y="28" type="line" smooth="yes"/>
      <point x="268" y="28"/>
      <point x="269" y="28"/>
      <point x="268" y="28" type="curve" smooth="yes"/>
      <point x="268" y="28"/>
      <point x="269" y="28"/>
      <point x="268" y="28" type="curve" smooth="yes"/>
      <point x="140" y="325" type="line" smooth="yes"/>
      <point x="135" y="335"/>
      <point x="136" y="343"/>
      <point x="136" y="353" type="curve" smooth="yes"/>
      <point x="136" y="371"/>
      <point x="146" y="396"/>
      <point x="169" y="400" type="curve" smooth="yes"/>
      <point x="184" y="403"/>
      <point x="194" y="400"/>
      <point x="194" y="404" type="curve" smooth="yes"/>
      <point x="194" y="406"/>
      <point x="180" y="405"/>
      <point x="173" y="405" type="curve" smooth="yes"/>
      <point x="135" y="405"/>
      <point x="134" y="404"/>
      <point x="99" y="404" type="curve" smooth="yes"/>
      <point x="64" y="404"/>
      <point x="63" y="405"/>
      <point x="25" y="405" type="curve" smooth="yes"/>
      <point x="18" y="405"/>
      <point x="5" y="405"/>
      <point x="5" y="402" type="curve" smooth="yes"/>
      <point x="5" y="399"/>
      <point x="11" y="397"/>
      <point x="24" y="395" type="curve"/>
      <point x="46" y="391"/>
      <point x="68" y="378"/>
      <point x="83" y="343" type="curve" smooth="yes"/>
      <point x="238" y="22" type="line" smooth="yes"/>
      <point x="242" y="13"/>
      <point x="244" y="3"/>
      <point x="244" y="-7" type="curve" smooth="yes"/>
      <point x="244" y="-16"/>
      <point x="242" y="-24"/>
      <point x="239" y="-30" type="curve"/>
      <point x="222" y="-62"/>
      <point x="208" y="-85"/>
      <point x="186" y="-122" type="curve" smooth="yes"/>
      <point x="181" y="-129"/>
      <point x="172" y="-133"/>
      <point x="163" y="-133" type="curve" smooth="yes"/>
      <point x="150" y="-133"/>
      <point x="135" y="-127"/>
      <point x="118" y="-127" type="curve" smooth="yes"/>
      <point x="95" y="-127"/>
      <point x="81" y="-148"/>
      <point x="81" y="-172" type="curve" smooth="yes"/>
      <point x="81" y="-202"/>
      <point x="99" y="-213"/>
    </contour>
  </outline>
</glyph>
